<?xml version="1.0" encoding="UTF-8" standalone="no"?>
<svg
   xmlns:dc="http://purl.org/dc/elements/1.1/"
   xmlns:cc="http://creativecommons.org/ns#"
   xmlns:rdf="http://www.w3.org/1999/02/22-rdf-syntax-ns#"
   xmlns:svg="http://www.w3.org/2000/svg"
   xmlns="http://www.w3.org/2000/svg"
   xmlns:sodipodi="http://sodipodi.sourceforge.net/DTD/sodipodi-0.dtd"
   xmlns:inkscape="http://www.inkscape.org/namespaces/inkscape"
   role="img"
   viewBox="0 0 17.5 14"
   version="1.1"
   id="svg6"
   sodipodi:docname="Bootstrap.svg"
   inkscape:version="1.0.2 (e86c870879, 2021-01-15, custom)"
   width="17.5"
   height="14">
  <metadata
     id="metadata12">
    <rdf:RDF>
      <cc:Work
         rdf:about="">
        <dc:format>image/svg+xml</dc:format>
        <dc:type
           rdf:resource="http://purl.org/dc/dcmitype/StillImage" />
        <dc:title>Bootstrap icon</dc:title>
      </cc:Work>
    </rdf:RDF>
  </metadata>
  <defs
     id="defs10" />
  <sodipodi:namedview
     pagecolor="#ffffff"
     bordercolor="#666666"
     borderopacity="1"
     objecttolerance="10"
     gridtolerance="10"
     guidetolerance="10"
     inkscape:pageopacity="0"
     inkscape:pageshadow="2"
     inkscape:window-width="1366"
     inkscape:window-height="715"
     id="namedview8"
     showgrid="false"
     inkscape:zoom="13.670731"
     inkscape:cx="16.754685"
     inkscape:cy="10.508089"
     inkscape:window-x="-8"
     inkscape:window-y="-8"
     inkscape:window-maximized="1"
     inkscape:current-layer="svg6"
     fit-margin-top="0"
     fit-margin-left="0"
     fit-margin-right="0"
     fit-margin-bottom="0" />
  <title
     id="title2">Bootstrap icon</title>
  <path
     d="M 8.5822922,6.4444208 H 7.2595832 V 4.220642 h 1.569167 c 0.853125,0 1.3372908,0.3820977 1.3372908,1.0730938 0,0.737845 -0.5636458,1.150685 -1.5852078,1.150685 z m 0.236249,0.882778 h -1.558228 v 2.450695 h 1.62677 c 1.063855,0 1.6275008,-0.428213 1.6275008,-1.2334 0,-0.805186 -0.5796878,-1.217295 -1.6960428,-1.217295 z M 17.5,6.5542198 v 0.891561 c -0.8225,0.07906 -1.324896,0.690997 -1.623125,1.660148 C 15.580104,10.071421 15.53927,11.255777 15.570624,12.170031 15.603434,13.121615 14.864791,14 13.866562,14 H 3.6348959 C 2.6359376,14 1.8972918,13.121615 1.9308334,12.170031 1.9621874,11.255777 1.9213534,10.071421 1.6245834,9.1059288 1.3256251,8.1367778 0.8225001,7.5248348 0,7.4457808 V 6.5542198 C 0.8225001,6.4751648 1.3263542,5.8632228 1.6238542,4.8940708 1.9213542,3.9285789 1.9621875,2.7442225 1.9301042,1.8299697 1.8972918,0.8783854 2.6359376,0 3.6348959,0 H 13.866562 c 0.998958,0 1.736875,0.8783854 1.704062,1.8299697 -0.03136,0.9142528 0.0095,2.0986092 0.306251,3.0641011 0.298229,0.969152 0.800625,1.581094 1.623125,1.660149 z m -5.780104,2.062009 c 0,-0.991112 -0.694896,-1.707727 -1.7266668,-1.821185 v -0.04172 c 0.7583328,-0.123705 1.3533328,-0.830806 1.3533328,-1.619889 0,-1.1250653 -0.884478,-1.8577852 -2.2327078,-1.8577852 H 6.0805209 v 7.4457764 h 3.0486453 c 1.6172918,0 2.5907298,-0.7949392 2.5907298,-2.1051972 z"
     id="path4"
     style="fill:#8211f9;fill-opacity:1;stroke-width:0.730575" />
</svg>
