<?xml version="1.0" encoding="UTF-8" standalone="no"?>
<svg
   xmlns:dc="http://purl.org/dc/elements/1.1/"
   xmlns:cc="http://creativecommons.org/ns#"
   xmlns:rdf="http://www.w3.org/1999/02/22-rdf-syntax-ns#"
   xmlns:svg="http://www.w3.org/2000/svg"
   xmlns="http://www.w3.org/2000/svg"
   xmlns:sodipodi="http://sodipodi.sourceforge.net/DTD/sodipodi-0.dtd"
   xmlns:inkscape="http://www.inkscape.org/namespaces/inkscape"
   role="img"
   viewBox="0 0 11 14"
   version="1.1"
   id="svg6"
   sodipodi:docname="Django.svg"
   inkscape:version="1.0.2 (e86c870879, 2021-01-15)"
   width="11"
   height="14">
  <metadata
     id="metadata12">
    <rdf:RDF>
      <cc:Work
         rdf:about="">
        <dc:format>image/svg+xml</dc:format>
        <dc:type
           rdf:resource="http://purl.org/dc/dcmitype/StillImage" />
        <dc:title>Django icon</dc:title>
      </cc:Work>
    </rdf:RDF>
  </metadata>
  <defs
     id="defs10" />
  <sodipodi:namedview
     pagecolor="#ffffff"
     bordercolor="#666666"
     borderopacity="1"
     objecttolerance="10"
     gridtolerance="10"
     guidetolerance="10"
     inkscape:pageopacity="0"
     inkscape:pageshadow="2"
     inkscape:window-width="1366"
     inkscape:window-height="715"
     id="namedview8"
     showgrid="false"
     inkscape:zoom="14.25629"
     inkscape:cx="6.3785208"
     inkscape:cy="9.2002654"
     inkscape:window-x="-8"
     inkscape:window-y="-8"
     inkscape:window-maximized="1"
     inkscape:current-layer="svg6"
     fit-margin-top="0"
     fit-margin-left="0"
     fit-margin-right="0"
     fit-margin-bottom="0" />
  <title
     id="title2">Django icon</title>
  <path
     d="m 4.9957058,0 h 2.317156 v 10.596833 c -1.188694,0.222834 -2.061466,0.312084 -3.009233,0.312084 C 1.4745008,10.908917 0,9.6454163 0,7.2222503 0,4.8877501 1.5648487,3.3722501 3.9877068,3.3722501 c 0.376154,0 0.661961,0.029166 1.007999,0.1184166 z m 0,5.3334163 a 2.2994416,2.2715 0 0 0 -0.782425,-0.118999 c -1.1739315,0 -1.8506546,0.713416 -1.8506546,1.962916 0,1.219167 0.6471977,1.887667 1.8358916,1.887667 0.255691,0 0.466502,-0.01458 0.797188,-0.0595 V 5.3328333 Z M 11,3.5350001 V 8.8421673 C 11,10.670334 10.864774,11.547667 10.458504,12.305417 10.082349,13.034 9.5857308,13.494834 8.5623788,14 l -2.151814,-1.010917 c 1.023351,-0.475416 1.51997,-0.892499 1.835892,-1.53125 0.331276,-0.653916 0.436386,-1.41225 0.436386,-3.4037487 V 3.5344167 H 11 Z M 8.6828428,0.01225 H 11 V 2.3607501 H 8.6828428 Z"
     id="path4"
     style="fill:#2ba977;fill-opacity:1;stroke-width:0.58691" />
</svg>
