<?xml version="1.0" encoding="UTF-8" standalone="no"?>
<svg
   xmlns:dc="http://purl.org/dc/elements/1.1/"
   xmlns:cc="http://creativecommons.org/ns#"
   xmlns:rdf="http://www.w3.org/1999/02/22-rdf-syntax-ns#"
   xmlns:svg="http://www.w3.org/2000/svg"
   xmlns="http://www.w3.org/2000/svg"
   xmlns:sodipodi="http://sodipodi.sourceforge.net/DTD/sodipodi-0.dtd"
   xmlns:inkscape="http://www.inkscape.org/namespaces/inkscape"
   role="img"
   viewBox="0 0 14.700045 14.000044"
   version="1.1"
   id="svg6"
   sodipodi:docname="jQuery.svg"
   inkscape:version="1.0.2 (e86c870879, 2021-01-15, custom)"
   width="14.700045"
   height="14.000044">
  <metadata
     id="metadata12">
    <rdf:RDF>
      <cc:Work
         rdf:about="">
        <dc:format>image/svg+xml</dc:format>
        <dc:type
           rdf:resource="http://purl.org/dc/dcmitype/StillImage" />
        <dc:title>jQuery icon</dc:title>
      </cc:Work>
    </rdf:RDF>
  </metadata>
  <defs
     id="defs10" />
  <sodipodi:namedview
     pagecolor="#ffffff"
     bordercolor="#666666"
     borderopacity="1"
     objecttolerance="10"
     gridtolerance="10"
     guidetolerance="10"
     inkscape:pageopacity="0"
     inkscape:pageshadow="2"
     inkscape:window-width="1366"
     inkscape:window-height="715"
     id="namedview8"
     showgrid="false"
     inkscape:zoom="13.670731"
     inkscape:cx="13.348928"
     inkscape:cy="9.9717223"
     inkscape:window-x="-8"
     inkscape:window-y="-8"
     inkscape:window-maximized="1"
     inkscape:current-layer="svg6"
     fit-margin-top="0"
     fit-margin-left="0"
     fit-margin-right="0"
     fit-margin-bottom="0" />
  <title
     id="title2">jQuery icon</title>
  <path
     d="m 0.93414606,3.2878298 c -1.3021692,1.8495176 -1.1404699,4.2549816 -0.1451619,6.2189576 0.022663,0.04784 0.047775,0.09326 0.072275,0.138684 0.014087,0.0315 0.030012,0.06057 0.047162,0.09084 0.00796,0.01635 0.018988,0.03391 0.028787,0.04965 0.015925,0.0315 0.033075,0.06177 0.049612,0.09205 l 0.096162,0.1610896 c 0.018375,0.02967 0.034912,0.05875 0.055125,0.08842 0.0343,0.05692 0.0735,0.113247 0.1090245,0.170174 0.015925,0.02423 0.030625,0.04724 0.048387,0.07085 a 3.9003825,3.8564929 0 0 0 0.1898742,0.269494 c 0.047775,0.0648 0.095549,0.127783 0.1469993,0.190766 0.016537,0.02302 0.035525,0.04602 0.052675,0.06965 l 0.1347494,0.162908 c 0.01715,0.01817 0.033687,0.04058 0.05145,0.05995 0.060024,0.07146 0.1237244,0.141105 0.1874242,0.211962 l 0.00306,0.0037 a 1.9195664,1.8979662 0 0 0 0.2603151,0.266437 c 0.049,0.05027 0.098,0.09992 0.1500619,0.148373 l 0.061862,0.05874 c 0.067987,0.0636 0.1365868,0.126572 0.208249,0.187132 0.00123,0 0.00184,0.0012 0.00306,0.0018 l 0.034912,0.03028 c 0.062475,0.05389 0.1255619,0.107798 0.1898742,0.157458 l 0.076562,0.0636 c 0.052062,0.04118 0.1065746,0.08054 0.1592493,0.121122 l 0.083912,0.0636 c 0.056963,0.0424 0.1175995,0.08418 0.1757868,0.125359 0.021438,0.01514 0.042874,0.03028 0.064925,0.04421 l 0.018375,0.01393 0.1714992,0.112037 0.073499,0.04845 c 0.09065,0.05692 0.1800742,0.111431 0.2694989,0.164724 0.025113,0.01211 0.05145,0.02664 0.075337,0.04119 0.06615,0.03755 0.1347494,0.07571 0.2015115,0.110826 0.03675,0.02059 0.074724,0.03816 0.1126995,0.05692 0.045937,0.02544 0.093712,0.05027 0.1433243,0.07571 a 0.19844911,0.19621604 0 0 1 0.0343,0.01393 c 0.020213,0.009 0.0392,0.01878 0.058799,0.02847 0.0735,0.03634 0.1500618,0.07147 0.2296864,0.10598 0.0147,0.0061 0.030625,0.01211 0.04655,0.02059 0.0882,0.03816 0.1770116,0.0745 0.2682737,0.110221 0.020825,0.0061 0.042874,0.01635 0.064312,0.02423 0.082687,0.03089 0.1678256,0.06237 0.2517366,0.09205 l 0.03063,0.0109 c 0.09432,0.03149 0.186811,0.06177 0.281748,0.09084 0.02205,0.0061 0.04471,0.01393 0.06799,0.01999 0.098,0.02907 0.192324,0.06359 0.290324,0.08297 6.2921838,1.133693 8.1204878,-3.740823 8.1204878,-3.740823 -1.536143,1.977907 -4.261756,2.499332 -6.8440438,1.919163 -0.09555,-0.0218 -0.191099,-0.05208 -0.287874,-0.07994 a 8.2926003,8.1992867 0 0 1 -0.347286,-0.11022 l -0.03797,-0.01453 c -0.0833,-0.02786 -0.163537,-0.05874 -0.244999,-0.08963 a 0.98918306,0.97805214 0 0 0 -0.06738,-0.02423 c -0.09065,-0.03634 -0.177624,-0.07328 -0.265212,-0.111431 -0.01898,-0.0061 -0.03491,-0.01453 -0.0539,-0.0218 a 14.356935,14.195382 0 0 1 -0.221725,-0.102953 0.90955843,0.8993235 0 0 1 -0.06492,-0.03149 c -0.05757,-0.02664 -0.115149,-0.05754 -0.171499,-0.0866 a 2.4175267,2.3903232 0 0 1 -0.114537,-0.05813 c -0.06982,-0.03634 -0.139037,-0.0757 -0.208249,-0.113249 -0.02083,-0.01453 -0.044713,-0.02664 -0.0686,-0.03996 A 9.7521813,9.6424436 0 0 1 5.0740149,10.959649 1.2905317,1.2760098 0 0 1 5.0017397,10.912412 3.6811085,3.6396863 0 0 1 4.8106406,10.787053 c -0.021438,-0.01393 -0.041037,-0.02907 -0.063087,-0.04421 A 5.8511863,5.785345 0 0 1 4.566867,10.614403 c -0.025726,-0.02058 -0.053288,-0.03996 -0.08085,-0.06057 -0.0539,-0.0424 -0.108412,-0.08176 -0.1623116,-0.125965 l -0.072275,-0.05754 a 6.4881834,6.4151742 0 0 1 -0.2051865,-0.169569 0.15802429,0.1562461 0 0 0 -0.022663,-0.01877 l -0.2125354,-0.1913336 -0.06125,-0.05692 c -0.050225,-0.05087 -0.1016746,-0.09932 -0.1531243,-0.148978 l -0.060025,-0.06057 A 5.5620876,5.4994994 0 0 1 3.3473856,9.5285854 l -0.00919,-0.0096 c -0.064925,-0.07025 -0.1286245,-0.142317 -0.1917117,-0.21499 -0.016537,-0.01817 -0.032462,-0.03875 -0.049,-0.05874 L 2.9584495,9.0774134 A 13.030879,12.884247 0 0 1 2.7502004,8.8054964 C 1.3181819,6.8730114 0.80000916,4.2047159 1.9459916,2.0166649 M 4.9735655,1.7302136 C 4.0303198,3.0692064 4.0829945,4.8605861 4.8179912,6.2770964 a 5.5804625,5.5176675 0 0 0 0.4152731,0.68615 c 0.1408739,0.19985 0.2964489,0.436642 0.4857099,0.598338 0.06553,0.07388 0.136588,0.145346 0.2107,0.218018 l 0.05513,0.05451 c 0.06982,0.06662 0.142099,0.131417 0.214373,0.196822 l 0.0098,0.0078 a 6.0435105,5.975505 0 0 0 0.253573,0.207116 c 0.02083,0.01393 0.03859,0.03028 0.0588,0.04421 0.08575,0.06541 0.172725,0.128388 0.262149,0.191371 l 0.0092,0.0055 c 0.03797,0.02726 0.0784,0.05208 0.121274,0.07873 0.01715,0.0109 0.03675,0.02544 0.05513,0.03634 0.06492,0.04119 0.128624,0.07994 0.194774,0.119304 0.01042,0.0043 0.0196,0.0096 0.0294,0.01393 0.05513,0.03331 0.11515,0.06541 0.172724,0.09508 0.02021,0.01211 0.03982,0.0212 0.06125,0.0327 0.04042,0.01999 0.08085,0.04118 0.120661,0.06177 l 0.0196,0.0084 c 0.08269,0.04058 0.167212,0.07812 0.2499,0.115065 0.02082,0.0084 0.03859,0.01514 0.05635,0.02361 0.06799,0.02907 0.1372,0.05692 0.205799,0.08297 0.03063,0.0103 0.05941,0.02241 0.0882,0.03149 0.06247,0.02302 0.128624,0.04421 0.189874,0.06541 l 0.08575,0.02726 c 0.09004,0.02725 0.180687,0.06298 0.275012,0.07873 4.8571028,0.7951596 5.9816478,-2.903875 5.9816478,-2.903875 -1.012459,1.441339 -2.971837,2.12749 -5.0598398,1.59153 a 4.9244779,4.8690646 0 0 1 -0.275011,-0.07873 c -0.0294,-0.0084 -0.05513,-0.01755 -0.0833,-0.02604 -0.0637,-0.02179 -0.129237,-0.0424 -0.191099,-0.06601 l -0.0882,-0.0327 c -0.06921,-0.02726 -0.139037,-0.05268 -0.205799,-0.08176 -0.02083,-0.009 -0.03981,-0.01514 -0.05574,-0.02423 -0.08575,-0.03816 -0.172112,-0.07571 -0.256024,-0.116276 l -0.126174,-0.0648 -0.07289,-0.03634 a 3.4746969,3.4355974 0 0 1 -0.162312,-0.09084 0.3797483,0.37547513 0 0 1 -0.03798,-0.0212 c -0.06492,-0.03997 -0.132912,-0.07873 -0.194774,-0.11991 -0.02083,-0.01151 -0.03982,-0.02544 -0.05941,-0.03755 l -0.127399,-0.08236 c -0.0882,-0.06057 -0.174563,-0.125965 -0.262149,-0.189554 -0.0196,-0.01756 -0.03859,-0.0321 -0.05757,-0.04784 C 6.4662212,6.2159304 5.7422502,5.2396954 5.3986392,4.1356769 5.0372652,2.9868442 5.1168898,1.6993278 5.7416372,0.6534478 m 2.628838,-0.089023 c -0.55676,0.8078771 -0.610047,1.8107591 -0.226624,2.7009985 0.407311,0.9465607 1.239695,1.689638 2.2098898,2.0408891 0.03981,0.01514 0.0784,0.02785 0.12005,0.0424 l 0.0539,0.01635 c 0.05635,0.01817 0.113312,0.03816 0.1715,0.05087 2.68335,0.511737 3.409771,-1.36261 3.605158,-1.6375546 -0.638834,0.9071963 -1.710092,1.1246085 -3.024511,0.8084826 A 2.9706117,2.9371844 0 0 1 10.963788,4.4899558 3.8905826,3.8468032 0 0 1 10.585265,4.3361322 3.9996071,3.9546009 0 0 1 9.9225432,3.9364328 C 8.7453232,3.0540663 8.0158392,1.3710899 8.7839112,0"
     id="path4"
     style="fill:#1068ad;fill-opacity:1;stroke-width:0.609041" />
</svg>
