<?xml version="1.0" encoding="UTF-8" standalone="no"?>
<svg
   xmlns:dc="http://purl.org/dc/elements/1.1/"
   xmlns:cc="http://creativecommons.org/ns#"
   xmlns:rdf="http://www.w3.org/1999/02/22-rdf-syntax-ns#"
   xmlns:svg="http://www.w3.org/2000/svg"
   xmlns="http://www.w3.org/2000/svg"
   xmlns:sodipodi="http://sodipodi.sourceforge.net/DTD/sodipodi-0.dtd"
   xmlns:inkscape="http://www.inkscape.org/namespaces/inkscape"
   role="img"
   viewBox="0 0 12.45 14"
   version="1.1"
   id="svg6"
   sodipodi:docname="Node.JS.svg"
   inkscape:version="1.0.2 (e86c870879, 2021-01-15, custom)"
   width="12.45"
   height="14">
  <metadata
     id="metadata12">
    <rdf:RDF>
      <cc:Work
         rdf:about="">
        <dc:format>image/svg+xml</dc:format>
        <dc:type
           rdf:resource="http://purl.org/dc/dcmitype/StillImage" />
        <dc:title>Node.js icon</dc:title>
      </cc:Work>
    </rdf:RDF>
  </metadata>
  <defs
     id="defs10" />
  <sodipodi:namedview
     pagecolor="#ffffff"
     bordercolor="#666666"
     borderopacity="1"
     objecttolerance="10"
     gridtolerance="10"
     guidetolerance="10"
     inkscape:pageopacity="0"
     inkscape:pageshadow="2"
     inkscape:window-width="1366"
     inkscape:window-height="715"
     id="namedview8"
     showgrid="false"
     inkscape:zoom="13.670731"
     inkscape:cx="11.343666"
     inkscape:cy="10.051769"
     inkscape:window-x="-8"
     inkscape:window-y="-8"
     inkscape:window-maximized="1"
     inkscape:current-layer="svg6"
     fit-margin-top="0"
     fit-margin-left="0"
     fit-margin-right="0"
     fit-margin-bottom="0" />
  <title
     id="title2">Node.js icon</title>
  <path
     d="m 6.2241225,14 c -0.187777,0 -0.374969,-0.049 -0.539346,-0.144081 l -1.7174836,-1.01324 c -0.2562185,-0.142915 -0.1310341,-0.193666 -0.046797,-0.223414 0.342209,-0.118416 0.411236,-0.145833 0.776845,-0.35233 0.03803,-0.02158 0.08833,-0.01342 0.127524,0.01 l 1.319702,0.781076 c 0.04797,0.02625 0.115239,0.02625 0.159112,0 l 5.1448461,-2.96097 c 0.04797,-0.02742 0.07839,-0.08224 0.07839,-0.1388325 V 4.0373536 c 0,-0.057749 -0.031,-0.1119988 -0.08014,-0.1411651 L 6.3042635,0.9375527 c -0.04739,-0.027416 -0.11056,-0.027416 -0.158527,0 L 1.0044001,3.8967718 c -0.049723,0.028583 -0.081311,0.084583 -0.081311,0.1405818 v 5.9207709 c 0,0.05658 0.031589,0.1102505 0.081311,0.1370825 l 1.4092023,0.811992 c 0.7645608,0.381495 1.2331248,-0.06767 1.2331248,-0.519162 V 4.542515 c 0,-0.082832 0.066687,-0.1475817 0.1497534,-0.1475817 h 0.6522459 c 0.08131,0 0.149168,0.065332 0.149168,0.1475817 v 5.845522 c 0,1.017906 -0.5557249,1.601234 -1.5232717,1.601234 -0.2971667,0 -0.5317413,0 -1.1851571,-0.321413 L 0.539346,10.893783 C 0.2059108,10.701868 0,10.342539 0,9.9581245 V 4.0373536 C 0,3.652941 0.2064958,3.2936114 0.539346,3.1022801 L 5.6841915,0.137811 c 0.32583,-0.183748 0.758126,-0.183748 1.081031,0 L 11.909485,3.1022801 C 12.242919,3.2941947 12.45,3.652941 12.45,4.0373536 v 5.9207709 c 0,0.3844145 -0.207081,0.7425775 -0.540515,0.9356585 L 6.7652225,13.855919 C 6.6014305,13.950999 6.4148245,14 6.2241225,14 Z M 10.378023,8.1626445 c 0,-1.108322 -0.7511075,-1.403486 -2.3322925,-1.611734 -1.597563,-0.210581 -1.760186,-0.319663 -1.760186,-0.692409 0,-0.307997 0.137469,-0.719243 1.320871,-0.719243 1.057048,0 1.446641,0.226915 1.606923,0.937407 0.01404,0.06708 0.07546,0.116082 0.144489,0.116082 h 0.6674545 c 0.04153,0 0.08073,-0.01808 0.108806,-0.04725 0.02807,-0.0315 0.04329,-0.07175 0.0392,-0.114331 -0.103541,-1.223821 -0.9189945,-1.794315 -2.5668665,-1.794315 -1.467115,0 -2.342235,0.6171602 -2.342235,1.652566 0,1.122905 0.870441,1.433235 2.278473,1.572067 1.684725,0.164499 1.815174,0.410079 1.815174,0.740243 0,0.57341 -0.461544,0.817824 -1.545502,0.817824 -1.361234,0 -1.66074,-0.340663 -1.761355,-1.016156 -0.0117,-0.07233 -0.07371,-0.125415 -0.147999,-0.125415 h -0.665117 c -0.08249,0 -0.148584,0.06533 -0.148584,0.147582 0,0.86449 0.471489,1.894646 2.723053,1.894646 1.630908,5.84e-4 2.5656965,-0.639326 2.5656965,-1.757564 z"
     id="path4"
     style="fill:#23b45d;fill-opacity:1;stroke-width:0.58415" />
</svg>
