<?xml version="1.0" encoding="UTF-8" standalone="no"?>
<svg
   xmlns:dc="http://purl.org/dc/elements/1.1/"
   xmlns:cc="http://creativecommons.org/ns#"
   xmlns:rdf="http://www.w3.org/1999/02/22-rdf-syntax-ns#"
   xmlns:svg="http://www.w3.org/2000/svg"
   xmlns="http://www.w3.org/2000/svg"
   xmlns:sodipodi="http://sodipodi.sourceforge.net/DTD/sodipodi-0.dtd"
   xmlns:inkscape="http://www.inkscape.org/namespaces/inkscape"
   role="img"
   viewBox="0 0 14 13"
   version="1.1"
   id="svg6"
   sodipodi:docname="OpenCV.svg"
   inkscape:version="1.0.2 (e86c870879, 2021-01-15)"
   width="14"
   height="13">
  <metadata
     id="metadata12">
    <rdf:RDF>
      <cc:Work
         rdf:about="">
        <dc:format>image/svg+xml</dc:format>
        <dc:type
           rdf:resource="http://purl.org/dc/dcmitype/StillImage" />
        <dc:title>OpenCV icon</dc:title>
      </cc:Work>
    </rdf:RDF>
  </metadata>
  <defs
     id="defs10" />
  <sodipodi:namedview
     pagecolor="#ffffff"
     bordercolor="#666666"
     borderopacity="1"
     objecttolerance="10"
     gridtolerance="10"
     guidetolerance="10"
     inkscape:pageopacity="0"
     inkscape:pageshadow="2"
     inkscape:window-width="1366"
     inkscape:window-height="715"
     id="namedview8"
     showgrid="false"
     inkscape:zoom="14.25629"
     inkscape:cx="9.1986275"
     inkscape:cy="7.5311936"
     inkscape:window-x="-8"
     inkscape:window-y="-8"
     inkscape:window-maximized="1"
     inkscape:current-layer="svg6"
     fit-margin-top="0"
     fit-margin-left="0"
     fit-margin-right="0"
     fit-margin-bottom="0" />
  <title
     id="title2">OpenCV icon</title>
  <g
     id="g860"
     transform="matrix(0.58333313,0,0,0.58309038,0,-0.49708455)">
    <path
       d="m 21.1716,12.4505 -1.6366,2.7878 c -0.041,0.07 -0.0172,0.1594 0.05,0.2048 0.624,0.4217 1.0348,1.1354 1.0363,1.9452 0.0022,1.298 -1.0483,2.352 -2.3465,2.3542 -1.298,0.0023 -2.3523,-1.0482 -2.3545,-2.3462 -0.0015,-0.8098 0.4068,-1.5248 1.0294,-1.9486 0.067,-0.0457 0.0905,-0.1353 0.0492,-0.2051 l -1.6464,-2.7818 c -1.6859,0.9998 -2.8146,2.8394 -2.811,4.9415 0.0056,3.1641 2.575,5.7248 5.7393,5.7192 3.1641,-0.0054 5.7246,-2.575 5.7192,-5.7392 -0.0037,-2.1022 -1.139,-3.938 -2.8284,-4.9318 z"
       id="path855"
       style="fill:#128dff;fill-opacity:1" />
    <path
       d="M 5.7292,11.6891 C 2.565,11.6891 0,14.2541 0,17.4183 c 0,3.1642 2.565,5.7292 5.7292,5.7292 3.1798,0 5.8074,-2.6995 5.7275,-5.8762 H 8.2313 c -0.0847,0 -0.1513,0.0717 -0.1519,0.1564 -0.0082,1.266 -1.0644,2.3411 -2.3502,2.3411 -1.2981,0 -2.3505,-1.0524 -2.3505,-2.3505 0,-1.2982 1.0524,-2.3505 2.3505,-2.3505 0.34,0 0.663,0.0724 0.9547,0.2022 0.0713,0.0318 0.1566,0.0077 0.1962,-0.0595 L 8.5265,12.417 C 7.6992,11.9534 6.745,11.6891 5.7292,11.6891 Z"
       id="path853"
       style="fill:#8bda67;fill-opacity:1" />
    <path
       d="m 11.8992,0.8525 c -3.1642,0 -5.7292,2.565 -5.7292,5.7292 0,2.102 1.1321,3.9398 2.8198,4.9366 L 10.631,8.7334 C 10.6721,8.6635 10.6486,8.5741 10.5815,8.5286 9.9582,8.1059 9.5487,7.3916 9.5487,6.5816 c 0,-1.298 1.0524,-2.3504 2.3505,-2.3504 1.2981,0 2.3505,1.0524 2.3505,2.3505 0,0.8098 -0.4095,1.5242 -1.0328,1.947 -0.0671,0.0454 -0.0907,0.1348 -0.0495,0.2047 l 1.6414,2.785 c 1.6878,-0.9969 2.8199,-2.8346 2.8199,-4.9367 0,-3.1642 -2.5653,-5.7292 -5.7295,-5.7292 z"
       id="path4"
       style="fill:#ff2a44;fill-opacity:1" />
  </g>
</svg>
