<?xml version="1.0" encoding="UTF-8" standalone="no"?>
<svg
   xmlns:dc="http://purl.org/dc/elements/1.1/"
   xmlns:cc="http://creativecommons.org/ns#"
   xmlns:rdf="http://www.w3.org/1999/02/22-rdf-syntax-ns#"
   xmlns:svg="http://www.w3.org/2000/svg"
   xmlns="http://www.w3.org/2000/svg"
   xmlns:sodipodi="http://sodipodi.sourceforge.net/DTD/sodipodi-0.dtd"
   xmlns:inkscape="http://www.inkscape.org/namespaces/inkscape"
   width="13.944621"
   height="14"
   viewBox="0 0 13.944621 14"
   id="svg2"
   version="1.1"
   inkscape:version="1.0.2 (e86c870879, 2021-01-15)"
   sodipodi:docname="OpenNN.svg"
   inkscape:export-filename="C:\Users\Ismael\Desktop\bitmap.png"
   inkscape:export-xdpi="300.01547"
   inkscape:export-ydpi="300.01547">
  <defs
     id="defs4" />
  <sodipodi:namedview
     id="base"
     pagecolor="#ffffff"
     bordercolor="#666666"
     borderopacity="1.0"
     inkscape:pageopacity="0.0"
     inkscape:pageshadow="2"
     inkscape:zoom="16"
     inkscape:cx="11.431104"
     inkscape:cy="7.4359305"
     inkscape:document-units="px"
     inkscape:current-layer="layer1"
     showgrid="false"
     fit-margin-top="0"
     fit-margin-left="0"
     fit-margin-right="0"
     fit-margin-bottom="0"
     inkscape:window-width="1366"
     inkscape:window-height="715"
     inkscape:window-x="-8"
     inkscape:window-y="-8"
     inkscape:window-maximized="1"
     inkscape:document-rotation="0" />
  <metadata
     id="metadata7">
    <rdf:RDF>
      <cc:Work
         rdf:about="">
        <dc:format>image/svg+xml</dc:format>
        <dc:type
           rdf:resource="http://purl.org/dc/dcmitype/StillImage" />
        <dc:title></dc:title>
      </cc:Work>
    </rdf:RDF>
  </metadata>
  <g
     inkscape:label="Capa 1"
     inkscape:groupmode="layer"
     id="layer1"
     transform="translate(-460.68023,-577.64086)">
    <ellipse
       style="fill:#ffffff;fill-opacity:1;fill-rule:nonzero;stroke:#898a8c;stroke-width:0.0851073;stroke-miterlimit:4;stroke-dasharray:none;stroke-opacity:1"
       id="path3001"
       transform="scale(-1,1)"
       cx="-484.22522"
       cy="611.75293"
       rx="0.0041980753"
       ry="0.00057243818" />
    <g
       id="g3054"
       transform="matrix(0.11412889,0,0,0.11415316,458.39205,556.33746)">
      <path
         style="fill:#55a1c8"
         inkscape:connector-curvature="0"
         d="m 22.14536,263.80844 c -8.73053,-32.70308 10.60592,-66.31976 43.18852,-75.08277 32.58154,-8.76405 66.07354,10.64574 74.80198,43.34882 8.73053,32.70517 -10.60592,66.32185 -43.18852,75.08486 -32.58154,8.76301 -66.07145,-10.64469 -74.80198,-43.35091 m 61.46993,-72.3294 -1.22267,0.61081 c -2.25047,1.09381 -3.93937,3.02997 -5.76657,5.32863 -1.82615,2.30077 -3.61878,4.93889 -5.41664,7.42509 -1.79891,2.48935 -3.58734,4.83831 -5.0667,6.28938 -0.73759,0.72711 -1.40183,1.26458 -1.83244,1.48565 -0.4348,0.22106 -0.49976,0.15925 -0.43794,0.17496 l -0.088,-0.087 h -0.088 c -1.59356,-0.30907 -2.43382,-0.81197 -3.05615,-1.48564 -0.62339,-0.67682 -1.03618,-1.58833 -1.39869,-2.79633 -0.72082,-2.41601 -0.7292,-5.7519 -2.70832,-8.73577 l -1.0477,-1.57156 -1.74653,0.52386 c -0.0524,0.0147 -0.92931,0 -2.44639,0.43689 l -2.27248,0.61186 0.52386,2.27038 c 1.26248,5.78647 5.46064,9.16952 1.92254,16.51184 h -0.087 v 0.087 c -0.92617,2.09331 -2.3961,3.61144 -4.45485,5.50569 -2.06083,1.89111 -4.66438,4.07452 -7.25117,7.33603 l -1.0477,1.39869 0.9597,1.4846 c 0.0786,0.12048 0.0775,0.33107 0.34993,0.78682 0.2745,0.45471 1.03094,1.17553 1.83349,1.4846 l 1.48564,0.61081 1.13571,-1.13466 c 4.77126,-4.83411 7.75722,-7.95208 9.5226,-9.43668 0.64748,-0.54481 0.88845,-0.65272 1.13571,-0.78473 0.0786,0.70929 0.0932,1.86177 0,3.31913 -0.2064,3.16511 -0.80254,7.56443 -1.30963,12.22986 -0.50918,4.66648 -0.9136,9.61794 -0.69882,14.06545 0.0189,0.39813 0.14773,0.74492 0.17602,1.13571 -2.46421,-2.51764 -5.01956,-5.19347 -8.73787,-5.32863 h -0.96074 l -0.69882,0.52385 c -0.74387,0.5972 -2.09018,1.6931 -3.14417,4.01795 l -1.0477,2.53336 2.53335,0.87483 c 8.41831,2.8791 12.79563,7.02591 15.11315,10.48229 1.15667,1.72872 1.73605,3.31075 2.09541,4.45694 0.18125,0.5731 0.29126,0.98589 0.34993,1.31068 0.0587,0.3227 0.087,0.70825 0.087,0.4369 v 0.17601 l 0.0891,0.25983 c 0.52385,2.62869 -0.72187,5.84305 -2.53545,9.17371 -1.81358,3.33066 -4.14158,6.49682 -4.80478,10.0475 l -0.43689,2.09541 2.09856,0.69882 c -0.17707,-0.0566 0.32688,0.23783 0.78473,0.69986 0.22944,0.2305 0.33526,0.45261 1.04875,0.87274 0.35727,0.21059 1.08333,0.60977 2.18342,0.26193 0.95341,-0.29964 1.44897,-1.0519 1.66166,-1.57261 v -0.088 c 2.6245,-6.59007 5.1809,-13.00936 10.91919,-16.68576 l 0.087,-0.087 0.17496,-0.087 c 3.98233,-3.25103 8.653,-3.89327 13.80143,-3.75603 5.15156,0.13516 10.57973,1.2101 15.55214,0.9597 l 1.83348,-0.087 0.43689,-1.92254 c 0.0168,-0.0639 0.19802,-0.78997 0.34994,-1.48564 0.0775,-0.34679 0.19173,-0.61291 0.17601,-1.22163 -0.009,-0.30488 -0.0157,-0.77844 -0.34993,-1.39868 -0.33422,-0.62025 -1.3463,-1.35364 -2.18342,-1.39764 -8.71062,-0.45575 -15.29859,0.0555 -19.22016,-0.26193 -1.96025,-0.15716 -3.15673,-0.55319 -3.58105,-0.87379 -0.37089,-0.27973 -0.56576,-0.57833 -0.61082,-1.5726 0.0524,-0.0744 0.0953,-0.0744 0.17288,-0.17392 0.43689,-0.55109 1.24572,-1.51394 2.27247,-2.53335 2.0535,-2.04198 5.0206,-4.61829 8.21296,-7.33918 3.19131,-2.72089 6.52825,-5.52036 9.52155,-7.77397 2.99225,-2.25676 5.732,-4.07558 6.90019,-4.63086 h 0.17496 l 0.087,-0.17497 c 1.71091,-1.11895 6.00964,-1.01837 11.18321,0.088 5.17252,1.10742 11.09416,2.95034 16.50975,3.92994 l 1.83558,0.34993 0.87378,-1.74652 c 0.27136,-0.55633 0.8895,-1.59566 0.78578,-3.14626 l -0.0859,-1.83348 -1.83453,-0.4369 c -9.41049,-2.04093 -15.53538,-3.19026 -18.95719,-4.28092 -1.71195,-0.54586 -2.69679,-1.08019 -3.05825,-1.39764 -0.36041,-0.31746 -0.3405,-0.26193 -0.34888,-0.78578 v -0.5249 c -0.16345,-0.6873 -0.16764,-0.65063 0,-0.87274 0.16763,-0.22421 0.86854,-0.73235 2.00949,-1.31068 2.28191,-1.15667 6.20033,-2.58783 10.74527,-5.32863 3.61982,-2.27981 6.09765,-3.63973 7.68702,-5.06566 0.39708,-0.35831 0.71139,-0.70929 1.0498,-1.31172 0.33631,-0.60034 0.60662,-1.65642 0.26192,-2.62031 -0.34783,-0.96599 -1.04561,-1.44374 -1.57155,-1.74653 -0.53014,-0.30488 -0.94818,-0.5469 -1.48565,-0.70091 l -1.13467,-0.26088 -0.96179,0.61081 c -3.90689,2.67793 -9.71432,6.75141 -15.02724,9.52259 -2.65279,1.38507 -5.21652,2.43173 -7.16316,2.88329 -1.94664,0.45051 -3.06035,0.19173 -3.40609,-0.088 l -0.26298,-0.17392 -0.26087,-0.17496 c -1.10743,-0.48404 -1.68157,-1.22791 -2.09646,-2.62031 -0.41489,-1.3945 -0.4589,-3.36104 -0.26298,-5.50255 0.39813,-4.29245 1.81987,-9.02075 2.44744,-11.88203 l 0.4369,-2.27143 -2.18447,-0.69882 c -1.03828,-0.32164 -0.88531,-0.20954 -1.74652,-0.52385 l -2.35734,-0.87274 -0.87274,2.27143 c -2.22009,5.69637 -3.71097,11.36027 -3.49515,16.77376 -5.21338,-3.29713 -11.15492,-7.38632 -18.52133,-9.34658 2.64231,-3.72354 5.06146,-6.53663 7.25117,-8.73681 2.79842,-2.81309 5.4533,-5.31816 7.94894,-9.26067 l 1.57365,-2.4443 -2.70832,-1.22477 c -0.46937,-0.19592 -0.53538,-0.39498 -1.66061,-1.0477 l -1.142,-0.70092 z m -23.23706,21.40358 c 4.45694,-0.002 4.64972,12.06014 -2.44744,10.39638 -4.30607,-1.00894 -3.47838,-9.58441 2.44744,-10.39638 m 4.89174,9.60955 c 0.3866,-0.0618 0.85912,-0.0115 1.39659,0 1.11895,0.0272 2.55011,0.19383 4.10491,0.61081 3.11483,0.83503 6.76503,2.39506 10.22351,4.10596 3.45743,1.71405 6.68646,3.56953 9.0857,5.06566 1.19858,0.75016 2.21799,1.36411 2.88119,1.83558 0.22526,0.1603 0.38451,0.24097 0.52595,0.34888 0.78368,1.8733 0.593,2.96606 -0.61291,5.15472 -1.26039,2.29028 -3.86708,5.5455 -7.16316,9.95844 -2.92834,2.81204 -6.43815,7.19354 -10.1355,10.6583 -1.86806,1.75386 -3.73088,3.20913 -5.41559,4.10596 -1.66795,0.8895 -3.03206,1.18915 -4.10387,0.96075 -0.0126,-0.002 -0.0786,0.003 -0.0891,0 -1.90368,-0.52909 -2.99539,-1.6229 -3.93099,-3.23113 -0.95237,-1.6407 -1.54956,-3.92051 -1.83453,-6.37843 -0.56053,-4.8142 -0.0252,-10.00873 0,-13.19061 0.49556,-4.8383 0.76377,-9.60327 1.39763,-13.28071 0.62758,-3.62507 1.7811,-5.82001 2.79633,-6.46225 0.22526,-0.10687 0.48509,-0.19907 0.87379,-0.26193 m 37.12963,10.22142 c 1.92149,-0.15611 3.975,1.49507 4.9766,6.02745 0.25564,5.88286 -8.05161,6.14165 -8.90968,1.57155 -0.7795,-4.151 1.45735,-7.39889 3.93308,-7.599 m -35.82,35.38206 c 0.24307,-0.0398 0.45785,-0.0199 0.69882,0 2.47468,0.20011 4.71048,3.44905 3.93099,7.6011 -0.85702,4.56695 -9.16533,4.31026 -8.91074,-1.5726 0.87798,-3.96766 2.58574,-5.75505 4.28093,-6.0285"
         id="path5-2" />
      <g
         id="g127"
         transform="matrix(1.1575524,0,0,1.1575524,-135.81427,-241.21109)" />
    </g>
  </g>
</svg>
