<?xml version="1.0" encoding="UTF-8" standalone="no"?>
<svg
   xmlns:dc="http://purl.org/dc/elements/1.1/"
   xmlns:cc="http://creativecommons.org/ns#"
   xmlns:rdf="http://www.w3.org/1999/02/22-rdf-syntax-ns#"
   xmlns:svg="http://www.w3.org/2000/svg"
   xmlns="http://www.w3.org/2000/svg"
   xmlns:sodipodi="http://sodipodi.sourceforge.net/DTD/sodipodi-0.dtd"
   xmlns:inkscape="http://www.inkscape.org/namespaces/inkscape"
   role="img"
   viewBox="0 0 14 12.5"
   version="1.1"
   id="svg6"
   sodipodi:docname="React.svg"
   inkscape:version="1.0.2 (e86c870879, 2021-01-15)"
   width="14"
   height="12.5">
  <metadata
     id="metadata12">
    <rdf:RDF>
      <cc:Work
         rdf:about="">
        <dc:format>image/svg+xml</dc:format>
        <dc:type
           rdf:resource="http://purl.org/dc/dcmitype/StillImage" />
        <dc:title>React icon</dc:title>
      </cc:Work>
    </rdf:RDF>
  </metadata>
  <defs
     id="defs10" />
  <sodipodi:namedview
     pagecolor="#ffffff"
     bordercolor="#666666"
     borderopacity="1"
     objecttolerance="10"
     gridtolerance="10"
     guidetolerance="10"
     inkscape:pageopacity="0"
     inkscape:pageshadow="2"
     inkscape:window-width="1366"
     inkscape:window-height="715"
     id="namedview8"
     showgrid="false"
     inkscape:zoom="20.161439"
     inkscape:cx="11.080671"
     inkscape:cy="6.8354452"
     inkscape:window-x="-8"
     inkscape:window-y="-8"
     inkscape:window-maximized="1"
     inkscape:current-layer="svg6"
     fit-margin-top="0"
     fit-margin-left="0"
     fit-margin-right="0"
     fit-margin-bottom="0" />
  <title
     id="title2">React icon</title>
  <path
     d="m 8.3008333,6.2514617 a 1.3043333,1.3076024 0 0 1 -1.30375,1.307603 1.3043333,1.3076024 0 0 1 -1.304334,-1.307603 1.3043333,1.3076024 0 0 1 1.30375,-1.307602 1.3043333,1.3076024 0 0 1 1.304334,1.307602 z M 9.8454993,0 C 9.0603333,0 8.0330833,0.5614034 6.9941663,1.5333333 5.9558333,0.5666666 4.9279997,0.0116958 4.1434164,0.0116958 c -0.2391667,0 -0.4567499,0.054385 -0.6451666,0.1625731 C 2.6961666,0.6380116 2.5164999,2.0830408 2.9306666,3.896491 1.155,4.4461987 0,5.3251467 0,6.2514617 0,7.1812867 1.1608332,8.0625727 2.9417499,8.6081867 2.5310832,10.428655 2.7142498,11.876024 3.5180831,12.339181 3.7047498,12.448538 3.9205832,12.5 4.1609164,12.5 c 0.7845834,0 1.8124169,-0.561403 2.8513339,-1.534504 1.038333,0.967253 2.066166,1.522223 2.850749,1.522223 0.2391657,0 0.4567507,-0.05262 0.6451667,-0.160819 0.8015,-0.463158 0.98175,-1.908185 0.567583,-3.7222213 C 12.844999,8.0596497 14,7.1789467 14,6.2514617 14,5.3216377 12.839166,4.4403507 11.058249,3.8935672 11.468916,2.0748537 11.285748,0.6263157 10.481916,0.162573 10.296415,0.0549707 10.080583,5.847e-4 9.8449173,0 Z m -0.003,0.6374267 v 0.00351 c 0.131249,0 0.2368317,0.025731 0.3254987,0.074269 0.3885,0.2233918 0.557084,1.0730994 0.425833,2.1660818 -0.03149,0.2690059 -0.08282,0.5526317 -0.145832,0.8421053 C 9.8880833,3.58538 9.2779163,3.479532 8.6356673,3.411111 8.2506663,2.8818713 7.8510833,2.4011694 7.4485823,1.9801168 c 0.928666,-0.865497 1.80075,-1.3403509 2.394584,-1.3421052 z m -5.6991672,0.011697 c 0.5903333,0 1.4665002,0.4725144 2.3975002,1.3333333 -0.400117,0.4210522 -0.799117,0.89883 -1.178284,1.4280698 C 4.7168332,3.4789473 4.1060832,3.5847951 3.5466664,3.725146 3.4813332,3.4385963 3.4329165,3.1614033 3.3984998,2.8947368 c -0.1341666,-1.0923977 0.0315,-1.9415206 0.4165,-2.1678364 0.1108333,-0.052631 0.2333334,-0.074269 0.3284166,-0.077193 z m 2.8478472,1.7836255 c 0.265417,0.2736843 0.530833,0.5801169 0.793334,0.9146199 -0.256597,-0.011697 -0.519097,-0.019883 -0.784514,-0.019883 -0.268333,0 -0.53375,0.00584 -0.793332,0.019883 0.256666,-0.334503 0.522083,-0.6409356 0.784582,-0.9152047 z m 0.0088,1.535672 c 0.431667,0 0.861584,0.019883 1.284501,0.054385 0.236833,0.3403515 0.467833,0.7035095 0.690082,1.0877195 0.217001,0.37427 0.414168,0.754386 0.593834,1.138012 -0.179666,0.383041 -0.376833,0.766082 -0.590916,1.140351 -0.221667,0.385965 -0.450917,0.753216 -0.688334,1.093567 -0.424666,0.03685 -0.855166,0.05731 -1.289167,0.05731 -0.431666,0 -0.861583,-0.02048 -1.2845,-0.05438 -0.236813,-0.340356 -0.467813,-0.704099 -0.690063,-1.087726 -0.2169999,-0.374268 -0.4141664,-0.754385 -0.5938332,-1.138011 0.17675,-0.38421 0.3768333,-0.767837 0.5909162,-1.142689 0.221667,-0.385965 0.450917,-0.752048 0.688333,-1.0923984 0.424667,-0.037427 0.855167,-0.05731 1.289167,-0.05731 z M 4.8795631,4.1169589 c -0.14,0.2204668 -0.28,0.4461988 -0.4106666,0.6783618 -0.13125,0.228071 -0.2537501,0.457311 -0.3704167,0.68655 C 3.9439165,5.0982457 3.8126664,4.7157887 3.7041664,4.3432747 4.0774998,4.2555547 4.4712498,4.1777776 4.8795831,4.1175437 Z m 4.2350002,0 c 0.405417,0.060234 0.79625,0.1345028 1.1701657,0.2263158 -0.105,0.369591 -0.23625,0.749707 -0.3850007,1.130409 -0.116666,-0.228069 -0.239166,-0.457894 -0.373333,-0.68655 -0.131249,-0.229239 -0.27125,-0.452631 -0.41125,-0.6701748 z m 1.7867487,0.3947358 c 0.282334,0.08772 0.550668,0.185382 0.802084,0.29123 1.010333,0.432747 1.663666,0.998829 1.663666,1.447953 -0.003,0.449122 -0.656249,1.017543 -1.666582,1.447367 -0.245001,0.105264 -0.513334,0.200001 -0.790418,0.288305 -0.163333,-0.560234 -0.376833,-1.14386 -0.641666,-1.74269 0.2625,-0.594737 0.4725,-1.175439 0.632916,-1.733334 z m -7.8137488,0.0023 c 0.1621667,0.561395 0.37625,1.144437 0.6416667,1.742682 -0.2625001,0.594737 -0.4736668,1.175438 -0.6335,1.733334 C 2.8134165,7.9023387 2.5450831,7.8040927 2.2965833,7.6976607 1.28625,7.2666657 0.6329166,6.6999997 0.6329166,6.2508777 c 0,-0.449124 0.6533334,-1.018714 1.6636667,-1.447953 0.2449999,-0.105265 0.5133332,-0.200001 0.7909999,-0.28889 z m 6.8121651,2.502924 c 0.1545837,0.384211 0.2858337,0.767252 0.3943337,1.139182 -0.3733317,0.09182 -0.7676667,0.16959 -1.1759987,0.22807 0.139998,-0.219298 0.279999,-0.445613 0.41125,-0.677193 0.131249,-0.228071 0.253749,-0.460818 0.370999,-0.690059 z m -5.8012485,0.0117 c 0.1166666,0.22924 0.2391667,0.457896 0.3733332,0.687134 0.1341668,0.228071 0.2712502,0.451463 0.4112501,0.668422 -0.4054166,-0.05965 -0.79625,-0.134511 -1.1701667,-0.225739 0.1050001,-0.36842 0.2368334,-0.749707 0.385,-1.130408 z m 6.3548322,1.746785 c 0.06533,0.288303 0.116667,0.56608 0.148167,0.832163 0.134166,1.0923973 -0.03149,1.9415193 -0.416501,2.1684213 -0.08575,0.05262 -0.1971647,0.07486 -0.3284157,0.07486 -0.590333,0 -1.466499,-0.471928 -2.397499,-1.333333 0.400167,-0.421053 0.799167,-0.8982463 1.178333,-1.4269003 0.64575,-0.069 1.2565,-0.175439 1.8159157,-0.315791 z m -6.9008321,0.0058 c 0.5599999,0.136842 1.1701665,0.242689 1.8124164,0.311111 0.385,0.529239 0.784583,1.0099423 1.187084,1.4304093 C 5.6215623,11.389976 4.7483131,11.86483 4.1544798,11.86483 4.0261465,11.86183 3.9176464,11.8356 3.8318964,11.78763 3.4433966,11.56543 3.2748132,10.715137 3.4060631,9.6221547 c 0.0315,-0.269006 0.082833,-0.552047 0.1458335,-0.840936 z m 2.6599994,0.374269 c 0.256666,0.0117 0.519167,0.01987 0.784584,0.01987 0.268333,0 0.53375,-0.0058 0.793333,-0.01987 -0.256666,0.334503 -0.522083,0.64035 -0.784584,0.9152053 C 6.7403973,9.7958227 6.4749793,9.4899757 6.2124793,9.1554727 Z"
     id="path4"
     style="fill:#61dafb;fill-opacity:1;stroke-width:0.584063" />
</svg>
