<?xml version="1.0" encoding="UTF-8" standalone="no"?>
<svg
   xmlns:dc="http://purl.org/dc/elements/1.1/"
   xmlns:cc="http://creativecommons.org/ns#"
   xmlns:rdf="http://www.w3.org/1999/02/22-rdf-syntax-ns#"
   xmlns:svg="http://www.w3.org/2000/svg"
   xmlns="http://www.w3.org/2000/svg"
   xmlns:sodipodi="http://sodipodi.sourceforge.net/DTD/sodipodi-0.dtd"
   xmlns:inkscape="http://www.inkscape.org/namespaces/inkscape"
   role="img"
   viewBox="0 0 14 14"
   version="1.1"
   id="svg6"
   sodipodi:docname="ROS.svg"
   width="14"
   height="14"
   inkscape:version="1.0.2 (e86c870879, 2021-01-15)">
  <metadata
     id="metadata12">
    <rdf:RDF>
      <cc:Work
         rdf:about="">
        <dc:format>image/svg+xml</dc:format>
        <dc:type
           rdf:resource="http://purl.org/dc/dcmitype/StillImage" />
        <dc:title>ROS icon</dc:title>
      </cc:Work>
    </rdf:RDF>
  </metadata>
  <defs
     id="defs10" />
  <sodipodi:namedview
     pagecolor="#ffffff"
     bordercolor="#666666"
     borderopacity="1"
     objecttolerance="10"
     gridtolerance="10"
     guidetolerance="10"
     inkscape:pageopacity="0"
     inkscape:pageshadow="2"
     inkscape:window-width="1366"
     inkscape:window-height="715"
     id="namedview8"
     showgrid="false"
     fit-margin-top="0"
     fit-margin-left="0"
     fit-margin-right="0"
     fit-margin-bottom="0"
     inkscape:zoom="14.25629"
     inkscape:cx="12.188398"
     inkscape:cy="12.139794"
     inkscape:window-x="-8"
     inkscape:window-y="-8"
     inkscape:window-maximized="1"
     inkscape:current-layer="svg6"
     inkscape:document-rotation="0" />
  <title
     id="title2">ROS icon</title>
  <g
     id="g838"
     style="fill:#000000;fill-opacity:1"
     transform="matrix(0.59186607,0,0,0.58333333,-0.10239283,0)">
    <path
       d="M 2.807,0 C 1.353,0 0.173,1.22 0.173,2.722 c 0,1.504 1.18,2.723 2.634,2.723 1.455,0 2.635,-1.22 2.635,-2.723 C 5.442,1.219 4.262,0 2.807,0 Z M 12,0 c -1.455,0 -2.634,1.22 -2.634,2.722 0,1.504 1.18,2.723 2.634,2.723 1.455,0 2.634,-1.22 2.634,-2.723 C 14.634,1.219 13.454,0 12,0 Z m 9.193,0 c -1.455,0 -2.635,1.22 -2.635,2.722 0,1.504 1.18,2.723 2.635,2.723 1.455,0 2.634,-1.22 2.634,-2.723 C 23.827,1.219 22.647,0 21.193,0 Z M 2.807,9.277 c -1.454,0 -2.634,1.22 -2.634,2.723 0,1.503 1.18,2.722 2.634,2.722 1.455,0 2.635,-1.219 2.635,-2.722 0,-1.504 -1.18,-2.723 -2.635,-2.723 z m 9.193,0 c -1.455,0 -2.634,1.22 -2.634,2.723 0,1.503 1.18,2.722 2.634,2.722 1.455,0 2.634,-1.219 2.634,-2.722 0,-1.504 -1.18,-2.723 -2.634,-2.723 z m 9.193,0 c -1.455,0 -2.635,1.22 -2.635,2.723 0,1.503 1.18,2.722 2.635,2.722 1.455,0 2.634,-1.219 2.634,-2.722 0,-1.504 -1.18,-2.723 -2.634,-2.723 z M 2.807,18.555 c -1.454,0 -2.634,1.22 -2.634,2.722 0,1.504 1.18,2.723 2.634,2.723 1.455,0 2.635,-1.22 2.635,-2.723 0,-1.503 -1.18,-2.722 -2.635,-2.722 z m 9.193,0 c -1.455,0 -2.634,1.22 -2.634,2.722 0,1.504 1.18,2.723 2.634,2.723 1.455,0 2.634,-1.22 2.634,-2.723 0,-1.503 -1.18,-2.722 -2.634,-2.722 z m 9.193,0 c -1.455,0 -2.635,1.22 -2.635,2.722 0,1.504 1.18,2.723 2.635,2.723 1.455,0 2.634,-1.22 2.634,-2.723 0,-1.503 -1.18,-2.722 -2.634,-2.722 z"
       id="path4"
       style="fill:#000000;fill-opacity:1" />
  </g>
</svg>
