<?xml version="1.0" encoding="UTF-8" standalone="no"?>
<svg
   xmlns:dc="http://purl.org/dc/elements/1.1/"
   xmlns:cc="http://creativecommons.org/ns#"
   xmlns:rdf="http://www.w3.org/1999/02/22-rdf-syntax-ns#"
   xmlns:svg="http://www.w3.org/2000/svg"
   xmlns="http://www.w3.org/2000/svg"
   xmlns:sodipodi="http://sodipodi.sourceforge.net/DTD/sodipodi-0.dtd"
   xmlns:inkscape="http://www.inkscape.org/namespaces/inkscape"
   role="img"
   viewBox="0 0 15.09753 14.13133"
   version="1.1"
   id="svg6"
   sodipodi:docname="SciPy.svg"
   inkscape:version="1.0.2 (e86c870879, 2021-01-15)"
   width="15.09753"
   height="14.13133">
  <metadata
     id="metadata12">
    <rdf:RDF>
      <cc:Work
         rdf:about="">
        <dc:format>image/svg+xml</dc:format>
        <dc:type
           rdf:resource="http://purl.org/dc/dcmitype/StillImage" />
        <dc:title>SciPy icon</dc:title>
      </cc:Work>
    </rdf:RDF>
  </metadata>
  <defs
     id="defs10" />
  <sodipodi:namedview
     pagecolor="#ffffff"
     bordercolor="#666666"
     borderopacity="1"
     objecttolerance="10"
     gridtolerance="10"
     guidetolerance="10"
     inkscape:pageopacity="0"
     inkscape:pageshadow="2"
     inkscape:window-width="1366"
     inkscape:window-height="715"
     id="namedview8"
     showgrid="false"
     inkscape:zoom="19.279855"
     inkscape:cx="11.292123"
     inkscape:cy="7.6007919"
     inkscape:window-x="-8"
     inkscape:window-y="-8"
     inkscape:window-maximized="1"
     inkscape:current-layer="svg6"
     fit-margin-top="0"
     fit-margin-left="0"
     fit-margin-right="0"
     fit-margin-bottom="0"
     inkscape:document-rotation="0" />
  <title
     id="title2">SciPy icon</title>
  <path
     d="m 9.8744153,8.0067226 c -0.493186,-0.674356 -1.246805,-0.955548 -2.323762,-1.18264 L 6.5491843,6.5881836 5.7936793,6.2642156 C 5.3967398,5.9836536 5.0576744,5.2363256 5.1539212,4.5776963 A 1.887191,1.887191 0 0 1 7.2839303,2.9886815 1.8632866,1.8632866 0 0 1 8.5181533,3.71525 l 1.137977,1.4946556 c 0.6498217,0.836654 1.3807937,1.086393 2.1759307,0.690712 l 0.400713,-0.169848 a 0.13839401,0.13839401 0 0 1 0.17488,0.05473 l 0.07989,0.119522 a 0.1956388,0.1956388 0 0 0 0.09813,0.08241 0.20507476,0.20507476 0 0 0 0.207591,-0.03648 l 0.922842,-0.870633 C 13.877776,4.9419242 13.830596,4.8148533 13.830596,4.8148533 L 13.607908,4.307828 c 0,0 -0.06102,-0.1214093 -0.271127,-0.09373 l -1.237997,0.11386 a 0.20570382,0.20570382 0 0 0 -0.169847,0.2585452 l 0.04466,0.1427974 c 0.0088,0.029566 0.0088,0.062906 -0.0031,0.093101 a 0.13776494,0.13776494 0 0 1 -0.078,0.078633 l -0.349759,0.14783 C 11.176576,5.2633756 10.760136,5.1262396 10.48209,4.7865454 L 10.164413,4.3650728 9.2598193,3.1635612 A 2.7810905,2.7810905 0 0 0 7.4172923,2.0815717 C 5.8848933,1.8651738 4.4632093,2.9264042 4.2405207,4.4487383 4.1279183,5.2161956 4.3581556,5.9427646 4.7783702,6.5259066 c 0.3050959,0.423989 0.8637041,0.666807 1.1662841,0.742295 l 0.793878,0.226463 0.759909,0.174251 c 0.104425,0.02516 0.398827,0.0975 0.572448,0.160411 0.16104,0.05787 0.531559,0.19501 0.83288,0.440973 0.359825,0.366116 0.550431,0.888867 0.469282,1.436782 A 1.7261507,1.7261507 0 0 1 6.2925263,10.496557 L 5.2067625,9.0547426 A 1.4430721,1.4430721 0 0 0 4.2543601,8.4948756 1.4531371,1.4531371 0 0 0 3.1799194,8.7710346 L 0.89516006,10.475798 A 6.9209585,6.9209585 0 0 1 2.4561121e-6,7.0656436 C 2.4561121e-6,3.1641902 3.2289863,0 7.2122173,0 10.178252,0 12.723444,1.7538295 13.831854,4.258761 l 0.365486,-0.1698472 0.247222,-0.6743562 0.258545,0.090585 -0.222059,0.6039012 0.616482,0.2119944 -0.0931,0.2528836 -0.688825,-0.2403023 -0.379325,0.1742506 c 0.314532,0.7938785 0.489411,1.6556955 0.489411,2.5577735 0,3.9020814 -3.230242,7.0656434 -7.2134727,7.0656434 A 7.2505879,7.2505879 0 0 1 1.3870879,11.231303 L 3.7278338,9.4774736 a 0.53784944,0.53784944 0 0 1 0.7316011,0.119522 l 1.1486704,1.5443514 a 2.6332605,2.6332605 0 0 0 1.681487,0.944854 c 1.448105,0.202558 2.7924137,-0.800798 3.0025207,-2.2413544 A 2.6043236,2.6043236 0 0 0 9.8744153,8.0067226"
     id="path4"
     style="fill:#0d56a6;fill-opacity:1;stroke-width:0.629064" />
  <path
     id="path831"
     style="fill:#ffffff;fill-opacity:1;stroke-width:0.629064"
     d="m 6.8499653,2.0588867 c -1.301751,0.07897 -2.414522,1.0566296 -2.609374,2.3886719 -0.112602,0.7674573 0.118847,1.494983 0.539062,2.078125 0.305096,0.423989 0.863436,0.6666995 1.166016,0.7421875 l 0.792968,0.2265625 0.759766,0.1738281 c 0.104425,0.02516 0.398645,0.097245 0.572266,0.1601563 0.16104,0.05787 0.532663,0.1954432 0.833984,0.4414062 0.359825,0.366116 0.549899,0.889585 0.46875,1.4375 A 1.7261507,1.7261507 0 0 1 6.2933253,10.496387 L 5.2073873,9.0549805 A 1.4430721,1.4430721 0 0 0 4.2542623,8.4944336 1.4531371,1.4531371 0 0 0 3.1800443,8.7698242 l -2.285157,1.7050778 0.492188,0.75586 2.341797,-1.7539065 a 0.53784944,0.53784944 0 0 1 0.730469,0.1191406 l 1.15039,1.5449219 a 2.6332605,2.6332605 0 0 0 1.679688,0.945313 C 8.7375243,12.288789 10.083218,11.2846 10.293325,9.844043 A 2.6043236,2.6043236 0 0 0 9.8753563,8.0061524 C 9.3821703,7.3317963 8.6280943,7.0496506 7.5511373,6.8225586 L 6.5491843,6.5881836 5.7952783,6.2639648 c -0.39694,-0.2805619 -0.736872,-1.0288707 -0.640625,-1.6875 a 1.887191,1.887191 0 0 1 2.130859,-1.5878906 1.8632866,1.8632866 0 0 1 1.232422,0.7265625 l 1.138672,1.4941407 c 0.6498207,0.836654 1.3806437,1.0870872 2.1757807,0.6914062 l 0.400391,-0.1699219 a 0.13839401,0.13839401 0 0 1 0.175781,0.054687 l 0.08008,0.1191406 a 0.1956388,0.1956388 0 0 0 0.09766,0.082031 0.20507476,0.20507476 0 0 0 0.207031,-0.037109 l 0.923823,-0.8691402 c 0.161669,-0.1383944 0.113281,-0.265625 0.113281,-0.265625 L 13.607778,4.3069336 c 0,0 -0.05942,-0.1214293 -0.269531,-0.09375 l -1.238282,0.1132812 a 0.20570382,0.20570382 0 0 0 -0.169921,0.2597657 l 0.04492,0.1425781 c 0.0088,0.029566 0.008,0.063555 -0.0039,0.09375 a 0.13776494,0.13776494 0 0 1 -0.07813,0.078125 l -0.349609,0.1484375 c -0.366162,0.214511 -0.782501,0.076022 -1.060547,-0.2636719 L 10.164419,4.3635742 9.2601223,3.1624024 A 2.7810905,2.7810905 0 0 0 7.4183253,2.0803711 c -0.19155,-0.02705 -0.382395,-0.032766 -0.56836,-0.021484 z M 6.3323873,14.078418 c 0.02023,0.0024 0.04028,0.0056 0.06055,0.0078 a 7.2505879,7.2505879 0 0 1 -0.06055,-0.0078 z" />
</svg>
