<?xml version="1.0" encoding="UTF-8" standalone="no"?>
<svg
   xmlns:dc="http://purl.org/dc/elements/1.1/"
   xmlns:cc="http://creativecommons.org/ns#"
   xmlns:rdf="http://www.w3.org/1999/02/22-rdf-syntax-ns#"
   xmlns:svg="http://www.w3.org/2000/svg"
   xmlns="http://www.w3.org/2000/svg"
   xmlns:sodipodi="http://sodipodi.sourceforge.net/DTD/sodipodi-0.dtd"
   xmlns:inkscape="http://www.inkscape.org/namespaces/inkscape"
   width="20"
   height="20"
   viewBox="0 0 20 20"
   version="1.1"
   id="svg3531"
   inkscape:version="1.0.2 (e86c870879, 2021-01-15)"
   sodipodi:docname="bash.svg">
  <metadata
     id="metadata3592">
    <rdf:RDF>
      <cc:Work
         rdf:about="">
        <dc:format>image/svg+xml</dc:format>
        <dc:type
           rdf:resource="http://purl.org/dc/dcmitype/StillImage" />
        <dc:title>bash (3)</dc:title>
      </cc:Work>
    </rdf:RDF>
  </metadata>
  <sodipodi:namedview
     pagecolor="#ffffff"
     bordercolor="#666666"
     borderopacity="1"
     objecttolerance="10"
     gridtolerance="10"
     guidetolerance="10"
     inkscape:pageopacity="0"
     inkscape:pageshadow="2"
     inkscape:window-width="1366"
     inkscape:window-height="715"
     id="namedview3590"
     showgrid="false"
     inkscape:zoom="19.034682"
     inkscape:cx="11.965321"
     inkscape:cy="10.434337"
     inkscape:window-x="-8"
     inkscape:window-y="-8"
     inkscape:window-maximized="1"
     inkscape:current-layer="svg3531"
     inkscape:document-rotation="0"
     fit-margin-top="0"
     fit-margin-left="0"
     fit-margin-right="0"
     fit-margin-bottom="0" />
  <!-- Generator: Sketch 3.6.1 (26313) - http://www.bohemiancoding.com/sketch -->
  <title
     id="title3533">bash (3)</title>
  <desc
     id="desc3535">Created with Sketch.</desc>
  <defs
     id="defs3537" />
  <g
     id="g841"
     transform="matrix(1.4250616,0,0,1.4285715,1.5,0)">
    <path
       style="fill:#3e474a;fill-opacity:1;fill-rule:evenodd;stroke:none;stroke-width:0.314845"
       d="M 11.367931,2.8568372 6.9593081,0.23262825 c -0.522044,-0.310171 -1.171212,-0.310171 -1.693257,0 L 0.85742907,2.8568372 c -0.533239,0.318947 -0.85915,0.896323 -0.857404002751,1.518954 v 5.248417 C -0.00327493,10.245279 0.31944807,10.822299 0.84973207,11.143162 l 4.40862303,2.62421 c 0.522045,0.31017 1.171212,0.31017 1.693256,0 l 4.4086229,-2.62421 c 0.530285,-0.320863 0.853072,-0.897883 0.849707,-1.5189538 v -5.248417 c 0.005,-0.6195169 -0.314677,-1.1961869 -0.84201,-1.518954 z"
       id="Shape" />
    <path
       style="fill:#fefefe;fill-opacity:1;fill-rule:evenodd;stroke:none;stroke-width:0.314845"
       d="m 11.032358,3.9636363 -4.1715669,2.584073 c -0.520291,0.308731 -0.903582,0.646791 -0.903582,1.275057 v 5.1527107 c 0,0.376652 0.153931,0.617461 0.38483,0.691557 -0.07616,0.01436 -0.153412,0.02209 -0.230899,0.02315 -0.244987,-5.67e-4 -0.485312,-0.06721 -0.695774,-0.192955 l -4.408623,-2.62421 C 0.57137407,10.608599 0.30613107,10.134626 0.30789007,9.6242043 v -5.248417 c -0.0022,-0.510971 0.263011,-0.985656 0.69885303,-1.250359 l 4.408623,-2.62420905 c 0.427145,-0.253715 0.958248,-0.253715 1.385392,0 L 11.20938,3.1254282 c 0.363322,0.2204691 0.611152,0.590436 0.677304,1.011092 -0.143158,-0.311817 -0.472573,-0.3982619 -0.855865,-0.1728879 h 0.0016 z"
       id="path856" />
    <path
       style="fill:#47b353;fill-opacity:1;fill-rule:evenodd;stroke:none;stroke-width:0.314845"
       d="m 10.262697,10.417646 c 0.0054,0.03243 -0.0077,0.06516 -0.03386,0.0849 l -1.1144709,0.679208 c -0.01068,0.0091 -0.02599,0.01027 -0.03793,0.0028 -0.01193,-0.0074 -0.01774,-0.02165 -0.01441,-0.0353 v -0.288629 c 0.0015,-0.03165 0.02137,-0.05946 0.0508,-0.07101 l 1.0975379,-0.659139 c 0.01068,-0.0091 0.026,-0.01027 0.03793,-0.0028 0.01193,0.0074 0.01775,0.02165 0.01441,0.0353 v 0.254702 0 z"
       id="path854" />
    <path
       style="fill:#fefefe;fill-opacity:1;fill-rule:evenodd;stroke:none;stroke-width:0.314845"
       d="m 7.9537111,11.052086 v 0.376652 c -5.66e-4,0.04709 -0.02493,0.09066 -0.06465,0.115774 l -0.223199,0.128123 c -0.0354,0.01852 -0.06465,0 -0.06465,-0.0494 v -0.370476 c -0.157759,0.07766 -0.338278,0.09522 -0.507977,0.0494 -0.02719,-0.01819 -0.03755,-0.05325 -0.02462,-0.08335 l 0.08004,-0.341148 c 0.0068,-0.02876 0.02243,-0.05466 0.04463,-0.07409 0.0065,-0.0063 0.01364,-0.0114 0.02155,-0.01543 0.01129,-0.0049 0.02412,-0.0049 0.0354,0 0.155656,0.0418 0.321448,0.02074 0.461797,-0.05866 0.203178,-0.0996 0.335557,-0.302873 0.344809,-0.529473 0,-0.191412 -0.104675,-0.2716818 -0.357124,-0.2732258 -0.320179,0 -0.615729,-0.06175 -0.623426,-0.535647 0.0074,-0.409792 0.197146,-0.794799 0.517212,-1.049684 v -0.381287 c -2.18e-4,-0.04771 0.02425,-0.09213 0.06465,-0.117318 l 0.215505,-0.137384 c 0.0354,-0.01852 0.06465,0 0.06465,0.05094 v 0.381283 c 0.131971,-0.06026 0.279311,-0.07805 0.421775,-0.05094 0.03074,0.01756 0.0428,0.0559 0.02771,0.08799 l -0.07543,0.33806 c -0.0065,0.02574 -0.01971,0.04923 -0.03848,0.06792 -0.0064,0.0067 -0.01354,0.01247 -0.02155,0.01699 -0.01049,0.0035 -0.02184,0.0035 -0.03232,0 -0.138947,-0.03055 -0.284285,-0.0068 -0.406382,0.06638 -0.181564,0.07877 -0.301486,0.255552 -0.307863,0.453834 0,0.172889 0.09082,0.225374 0.395605,0.231548 0.40792,0 0.583403,0.185238 0.588022,0.59585 -0.0077,0.4299398 -0.203638,0.8347098 -0.535685,1.1067988 v 0 z"
       id="path852" />
  </g>
</svg>
