<?xml version="1.0" encoding="UTF-8" standalone="no"?>
<svg
   xmlns:dc="http://purl.org/dc/elements/1.1/"
   xmlns:cc="http://creativecommons.org/ns#"
   xmlns:rdf="http://www.w3.org/1999/02/22-rdf-syntax-ns#"
   xmlns:svg="http://www.w3.org/2000/svg"
   xmlns="http://www.w3.org/2000/svg"
   xmlns:sodipodi="http://sodipodi.sourceforge.net/DTD/sodipodi-0.dtd"
   xmlns:inkscape="http://www.inkscape.org/namespaces/inkscape"
   role="img"
   viewBox="0 0 19.999999 20"
   version="1.1"
   id="svg6"
   sodipodi:docname="c++.svg"
   inkscape:version="1.0.2 (e86c870879, 2021-01-15)"
   width="20"
   height="20">
  <g
     id="g907"
     transform="matrix(1.4285496,0,0,1.4285626,1.0002639,1.3216913e-4)">
    <path
       d="M 12.599368,4.1160001 C 12.599269,3.8805765 12.548328,3.6725696 12.445362,3.4940696 12.344218,3.3184862 12.192673,3.171389 11.989498,3.055014 10.312073,2.0988335 8.6330228,1.1455696 6.956189,0.18841687 6.504114,-0.0695623 6.065772,-0.0601803 5.617044,0.20154187 4.949391,0.59081964 1.606649,2.4841252 0.610559,3.0544793 0.20037,3.289271 7.38e-4,3.6485557 6.4e-4,4.1155626 0,6.0385209 6.4e-4,7.961382 0,9.8843889 c 9.8e-5,0.2302221 0.04887,0.4341941 0.147312,0.6100691 0.101194,0.180834 0.254805,0.332014 0.462706,0.451014 0.996138,0.570355 4.339324,2.463514 5.006829,2.852889 0.448925,0.261868 0.887267,0.271202 1.339489,0.01313 1.6768838,-0.957201 3.356032,-1.910416 5.033703,-2.866597 0.2079,-0.118951 0.361512,-0.270229 0.462706,-0.450917 0.09829,-0.175875 0.147164,-0.379847 0.147263,-0.6101178 0,0 0,-3.8448472 -6.4e-4,-5.7678541"
       fill="#a9b9cb"
       id="path2"
       style="fill:#004482;fill-opacity:1;stroke-width:0.048914" />
    <path
       id="path51"
       style="fill:#659ad2;fill-opacity:1;stroke-width:0.048914"
       d="M 6.2851562,0 C 6.0629704,0.00281337 5.8415515,0.07031079 5.6171875,0.20117188 4.9495345,0.59044964 1.6074181,2.4843334 0.61132812,3.0546875 0.20113913,3.2894792 9.8e-5,3.6482275 0,4.1152344 c -6.4e-4,1.9229583 6.4e-4,3.8465243 0,5.7695312 9.8e-5,0.2302224 0.04804237,0.4335004 0.14648438,0.6093754 0.0218271,0.039 0.055308,0.0712 0.0820312,0.107421 L 12.414062,3.4550781 C 12.313606,3.2980474 12.176883,3.1615966 11.990234,3.0546875 10.312809,2.098507 8.6338651,1.1446527 6.9570312,0.1875 6.7309937,0.05851041 6.5073421,-0.00281337 6.2851562,0 Z" />
    <path
       id="path881"
       style="fill:#00599c;fill-opacity:1;stroke-width:0.048914"
       d="m 12.234375,3.2363281 c 0.07007,0.067105 0.129459,0.1402347 0.179687,0.21875 -0.05012,-0.078453 -0.108315,-0.1525192 -0.179687,-0.21875 z m 0.179687,0.21875 -6.2050776,3.6386719 6.2304686,3.417969 c 0.0037,-0.0063 0.01008,-0.01116 0.01367,-0.01758 0.09829,-0.175875 0.146385,-0.379105 0.146484,-0.6093754 0,0 6.4e-4,-3.8465243 0,-5.7695312 -9.9e-5,-0.2354236 -0.05133,-0.4425938 -0.154297,-0.6210938 -0.0082,-0.014282 -0.02236,-0.025154 -0.03125,-0.039063 z m -12.13085888,-0.125 c -0.0120163,0.014219 -0.0239707,0.028273 -0.0351562,0.042969 0.0114696,-0.014592 0.022855,-0.028855 0.0351562,-0.042969 z" />
    <path
       id="path6"
       style="fill:#ffffff;fill-opacity:1;stroke-width:0.048914"
       d="m 0.28320312,3.3300781 c -0.0123012,0.014114 -0.0236867,0.028377 -0.0351562,0.042969 0.0111855,-0.014696 0.02314,-0.028749 0.0351562,-0.042969 z M 6.6601562,3.390625 c -1.510574,0 -3.5410156,0.9487953 -3.5410156,3.6757812 0,2.7269376 1.9904277,3.6152348 3.5410156,3.6152348 1.7983962,0 2.6081733,-0.8784669 2.9277344,-1.7343754 L 7.8925781,8.0175781 C 7.8699935,8.289519 7.7161679,9.0136719 6.6503906,9.0136719 5.4499446,9.0136719 5.25,7.5603924 5.25,7.0664062 5.25,6.3155104 5.5199826,5.109375 6.6503906,5.109375 c 1.042895,0 1.2146981,0.8615496 1.2363282,1 L 9.5625,5.1269531 C 9.1494611,4.2924256 8.263169,3.390625 6.6601562,3.390625 Z" />
    <rect
       style="fill:#ffffff;stroke-width:1.22922;stroke-linecap:round"
       id="rect866"
       width="0.50820404"
       height="1.3916615"
       x="8.8654404"
       y="6.4445863"
       ry="0.020851167" />
    <rect
       style="fill:#ffffff;stroke-width:1.23821;stroke-linecap:round"
       id="rect868"
       width="1.552119"
       height="0.46235889"
       x="8.3434811"
       y="6.9115291"
       ry="0.020782456" />
    <rect
       style="fill:#ffffff;stroke-width:1.22922;stroke-linecap:round"
       id="rect895"
       width="0.50820404"
       height="1.3916615"
       x="10.81385"
       y="6.4445863"
       ry="0.020851167" />
    <rect
       style="fill:#ffffff;stroke-width:1.23821;stroke-linecap:round"
       id="rect897"
       width="1.552119"
       height="0.46235889"
       x="10.291891"
       y="6.9115291"
       ry="0.020782456" />
  </g>
  <metadata
     id="metadata12">
    <rdf:RDF>
      <cc:Work
         rdf:about="">
        <dc:format>image/svg+xml</dc:format>
        <dc:type
           rdf:resource="http://purl.org/dc/dcmitype/StillImage" />
        <dc:title>C++ icon</dc:title>
      </cc:Work>
    </rdf:RDF>
  </metadata>
  <defs
     id="defs10" />
  <sodipodi:namedview
     pagecolor="#ffffff"
     bordercolor="#666666"
     borderopacity="1"
     objecttolerance="10"
     gridtolerance="10"
     guidetolerance="10"
     inkscape:pageopacity="0"
     inkscape:pageshadow="2"
     inkscape:window-width="1366"
     inkscape:window-height="715"
     id="namedview8"
     showgrid="false"
     inkscape:zoom="19.279855"
     inkscape:cx="10.612754"
     inkscape:cy="11.119858"
     inkscape:window-x="-8"
     inkscape:window-y="-8"
     inkscape:window-maximized="1"
     inkscape:current-layer="svg6"
     fit-margin-top="0"
     fit-margin-left="0"
     fit-margin-right="0"
     fit-margin-bottom="0"
     inkscape:document-rotation="0" />
  <title
     id="title2">C++ icon</title>
</svg>
