<?xml version="1.0" encoding="UTF-8" standalone="no"?>
<svg
   xmlns:dc="http://purl.org/dc/elements/1.1/"
   xmlns:cc="http://creativecommons.org/ns#"
   xmlns:rdf="http://www.w3.org/1999/02/22-rdf-syntax-ns#"
   xmlns:svg="http://www.w3.org/2000/svg"
   xmlns="http://www.w3.org/2000/svg"
   xmlns:sodipodi="http://sodipodi.sourceforge.net/DTD/sodipodi-0.dtd"
   xmlns:inkscape="http://www.inkscape.org/namespaces/inkscape"
   role="img"
   viewBox="0 0 20 20"
   version="1.1"
   id="svg6"
   sodipodi:docname="go.svg"
   inkscape:version="1.0.2 (e86c870879, 2021-01-15)"
   width="20"
   height="20">
  <metadata
     id="metadata12">
    <rdf:RDF>
      <cc:Work
         rdf:about="">
        <dc:format>image/svg+xml</dc:format>
        <dc:type
           rdf:resource="http://purl.org/dc/dcmitype/StillImage" />
        <dc:title>Go icon</dc:title>
      </cc:Work>
    </rdf:RDF>
  </metadata>
  <defs
     id="defs10" />
  <sodipodi:namedview
     pagecolor="#ffffff"
     bordercolor="#666666"
     borderopacity="1"
     objecttolerance="10"
     gridtolerance="10"
     guidetolerance="10"
     inkscape:pageopacity="0"
     inkscape:pageshadow="2"
     inkscape:window-width="1366"
     inkscape:window-height="715"
     id="namedview8"
     showgrid="false"
     inkscape:zoom="20.161439"
     inkscape:cx="9.4101508"
     inkscape:cy="10.432549"
     inkscape:window-x="-8"
     inkscape:window-y="-8"
     inkscape:window-maximized="1"
     inkscape:current-layer="svg6"
     inkscape:document-rotation="0" />
  <title
     id="title2">Go icon</title>
  <path
     d="m 1.5091891,8.4704839 c -0.039166,0 -0.048334,-0.01924 -0.029167,-0.04935 l 0.2049988,-0.263483 c 0.019166,-0.02928 0.0675,-0.04852 0.1066661,-0.04852 h 3.476647 c 0.038333,0 0.048334,0.02928 0.029167,0.05855 l -0.1658325,0.253453 c -0.019167,0.03011 -0.068333,0.05855 -0.097499,0.05855 z m -1.46999155,0.899189 c -0.03916599998,0 -0.049167,-0.01924 -0.029166,-0.04852 l 0.204165,-0.26432 c 0.019167,-0.02928 0.068333,-0.04852 0.1074994,-0.04852 H 4.7616707 c 0.039166,0 0.058333,0.02928 0.048332,0.05855 l -0.077499,0.234207 c -0.01,0.03931 -0.048333,0.05855 -0.0875,0.05855 z M 2.3958508,10.268862 c -0.039166,0 -0.049167,-0.02928 -0.029167,-0.05855 L 2.5025163,9.9660671 c 0.019167,-0.02928 0.058333,-0.05855 0.097499,-0.05855 h 1.947489 c 0.039166,0 0.058333,0.02928 0.058333,0.06859 l -0.019167,0.2342069 c 0,0.03931 -0.039166,0.06859 -0.068333,0.06859 z M 12.503293,8.2948279 c -0.61333,0.156417 -1.032494,0.273521 -1.635824,0.429938 -0.146666,0.03847 -0.155832,0.04852 -0.283332,-0.09787 -0.144999,-0.166454 -0.252498,-0.273521 -0.456664,-0.371386 -0.6141625,-0.3027965 -1.2083255,-0.214969 -1.7624895,0.14638 -0.6624961,0.429937 -1.0033275,1.065643 -0.9933276,1.8569291 0.00917,0.782086 0.5449969,1.426992 1.3141586,1.534896 0.662496,0.08783 1.2166606,-0.14638 1.6558245,-0.64407 0.0875,-0.10874 0.164999,-0.225844 0.262498,-0.363022 H 8.7249815 c -0.204166,0 -0.253331,-0.127141 -0.184999,-0.292759 0.126666,-0.302797 0.359998,-0.8113621 0.496663,-1.0656441 a 0.26249851,0.2634833 0 0 1 0.243333,-0.156417 h 3.5441455 c -0.01917,0.26432 -0.01917,0.5278032 -0.05833,0.7921221 a 4.1524765,4.1680549 0 0 1 -0.79833,1.915483 C 11.26663,12.907875 10.350802,13.485029 9.1924755,13.64061 8.2383175,13.767753 7.351656,13.58206 6.5733271,12.996542 5.8524978,12.448664 5.4433336,11.72513 5.3366674,10.825941 5.2100015,9.7602981 5.5216664,8.8025559 6.1641627,7.9619193 6.8558255,7.0535293 7.7708203,6.4763754 8.8908145,6.2722804 c 0.914994,-0.167291 1.7916555,-0.058552 2.5799845,0.4776157 0.516663,0.3429466 0.885828,0.8113614 1.129993,1.3784778 0.05833,0.08783 0.01917,0.137178 -0.0975,0.167291 M 15.726607,13.7 c -0.886662,-0.02007 -1.69499,-0.274357 -2.376653,-0.860712 a 3.0541494,3.0656073 0 0 1 -1.051661,-1.886206 c -0.174999,-1.1041209 0.126666,-2.0819361 0.789162,-2.9518491 0.710829,-0.9385026 1.567492,-1.4269923 2.726651,-1.6310873 0.993328,-0.1756555 1.928322,-0.079464 2.774985,0.4976907 0.769162,0.5269666 1.24666,1.2412996 1.373325,2.1789646 0.164999,1.3199271 -0.214165,2.3947711 -1.119994,3.3140351 -0.642496,0.654944 -1.431658,1.064807 -2.337486,1.2505 -0.262498,0.05019 -0.524997,0.05855 -0.778329,0.08866 z m 2.316654,-3.9480669 c -0.0092,-0.1279782 -0.0092,-0.2258432 -0.02833,-0.3237082 -0.174998,-0.967778 -1.061661,-1.5139835 -1.986655,-1.299851 -0.905829,0.204932 -1.489991,0.782086 -1.704157,1.7005132 -0.174999,0.7628469 0.194999,1.5348939 0.895828,1.8485649 0.53583,0.234208 1.070827,0.204096 1.587491,-0.05855 0.769162,-0.401498 1.187493,-1.027166 1.23666,-1.8678039 z"
     id="path4"
     style="fill:#2dbcaf;fill-opacity:1;stroke-width:0.834891" />
</svg>
