<?xml version="1.0" encoding="UTF-8" standalone="no"?>
<svg
   xmlns:dc="http://purl.org/dc/elements/1.1/"
   xmlns:cc="http://creativecommons.org/ns#"
   xmlns:rdf="http://www.w3.org/1999/02/22-rdf-syntax-ns#"
   xmlns:svg="http://www.w3.org/2000/svg"
   xmlns="http://www.w3.org/2000/svg"
   xmlns:sodipodi="http://sodipodi.sourceforge.net/DTD/sodipodi-0.dtd"
   xmlns:inkscape="http://www.inkscape.org/namespaces/inkscape"
   viewBox="0 0 20 20"
   width="20"
   height="20"
   version="1.1"
   id="svg10"
   sodipodi:docname="icons8-html-5.svg"
   inkscape:version="1.0.2 (e86c870879, 2021-01-15)">
  <metadata
     id="metadata16">
    <rdf:RDF>
      <cc:Work
         rdf:about="">
        <dc:format>image/svg+xml</dc:format>
        <dc:type
           rdf:resource="http://purl.org/dc/dcmitype/StillImage" />
        <dc:title></dc:title>
      </cc:Work>
    </rdf:RDF>
  </metadata>
  <defs
     id="defs14" />
  <sodipodi:namedview
     pagecolor="#ffffff"
     bordercolor="#666666"
     borderopacity="1"
     objecttolerance="10"
     gridtolerance="10"
     guidetolerance="10"
     inkscape:pageopacity="0"
     inkscape:pageshadow="2"
     inkscape:window-width="1366"
     inkscape:window-height="715"
     id="namedview12"
     showgrid="false"
     inkscape:zoom="13.670731"
     inkscape:cx="25.77818"
     inkscape:cy="20.052982"
     inkscape:window-x="-8"
     inkscape:window-y="-8"
     inkscape:window-maximized="1"
     inkscape:current-layer="svg10" />
  <g
     id="g845"
     transform="matrix(0.52941176,0,0,0.52631579,-2.7058823,-2.6315789)">
    <path
       fill="#e65100"
       d="M 41,5 H 7 l 3,34 14,4 14,-4 z"
       id="path2" />
    <path
       fill="#ff6d00"
       d="M 24,8 V 39.9 L 35.2,36.7 37.7,8 Z"
       id="path4" />
    <path
       fill="#ffffff"
       d="m 24,25 v -4 h 8.6 L 31.9,32.5 24,35.1 v -4.2 l 4.1,-1.4 0.3,-4.5 z m 8.9,-8 0.3,-4 H 24 v 4 z"
       id="path6" />
    <path
       fill="#eeeeee"
       d="m 24,30.9 v 4.2 L 16.1,32.5 15.7,27 h 4 l 0.2,2.5 z M 19.1,17 H 24 v -4 h -9.1 l 0.7,12 H 24 v -4 h -4.6 z"
       id="path8" />
  </g>
</svg>
