<?xml version="1.0" encoding="UTF-8" standalone="no"?>
<svg
   xmlns:dc="http://purl.org/dc/elements/1.1/"
   xmlns:cc="http://creativecommons.org/ns#"
   xmlns:rdf="http://www.w3.org/1999/02/22-rdf-syntax-ns#"
   xmlns:svg="http://www.w3.org/2000/svg"
   xmlns="http://www.w3.org/2000/svg"
   xmlns:sodipodi="http://sodipodi.sourceforge.net/DTD/sodipodi-0.dtd"
   xmlns:inkscape="http://www.inkscape.org/namespaces/inkscape"
   role="img"
   viewBox="0 0 20 20"
   version="1.1"
   id="svg6"
   sodipodi:docname="javascript.svg"
   width="20"
   height="20"
   inkscape:version="1.0.2 (e86c870879, 2021-01-15)">
  <metadata
     id="metadata12">
    <rdf:RDF>
      <cc:Work
         rdf:about="">
        <dc:format>image/svg+xml</dc:format>
        <dc:type
           rdf:resource="http://purl.org/dc/dcmitype/StillImage" />
        <dc:title>JavaScript icon</dc:title>
      </cc:Work>
    </rdf:RDF>
  </metadata>
  <defs
     id="defs10" />
  <sodipodi:namedview
     pagecolor="#ffffff"
     bordercolor="#666666"
     borderopacity="1"
     objecttolerance="10"
     gridtolerance="10"
     guidetolerance="10"
     inkscape:pageopacity="0"
     inkscape:pageshadow="2"
     inkscape:window-width="1366"
     inkscape:window-height="715"
     id="namedview8"
     showgrid="false"
     fit-margin-top="0"
     fit-margin-left="0"
     fit-margin-right="0"
     fit-margin-bottom="0"
     inkscape:zoom="20.161439"
     inkscape:cx="12.38434"
     inkscape:cy="10.726562"
     inkscape:window-x="-8"
     inkscape:window-y="-8"
     inkscape:window-maximized="1"
     inkscape:current-layer="svg6"
     inkscape:document-rotation="0" />
  <title
     id="title2">JavaScript icon</title>
  <g
     id="g860"
     transform="scale(1.4285714)">
    <path
       style="fill:#f7df1e;fill-opacity:1;stroke-width:0.583334"
       d="M 0,0 H 14 V 14 H 0 Z"
       id="path4" />
    <path
       style="fill:#000000;fill-opacity:1;stroke-width:0.583334"
       d="M 7.6130833,6.43475 H 6.30175 c 0,1.1305 -0.00525,2.254 -0.00525,3.38625 0,0.718667 0.03675,1.378417 -0.0805,1.581417 -0.1925,0.401916 -0.6883333,0.350583 -0.9135,0.28 -0.231,-0.114334 -0.34825,-0.271834 -0.4841667,-0.49875 -0.03675,-0.06125 -0.064167,-0.114334 -0.074083,-0.114334 l -1.0645833,0.65625 c 0.1779166,0.3675 0.4375,0.683667 0.7723333,0.884917 0.49875,0.2975 1.169,0.39375 1.87075,0.23625 0.45675,-0.131833 0.8505,-0.403083 1.0564167,-0.823083 0.2975,-0.5425 0.2345,-1.2075 0.2315833,-1.951834 0.007,-1.1981663 0,-2.3969163 0,-3.6044163 z"
       id="path855" />
    <path
       style="fill:#000000;fill-opacity:1;stroke-width:0.583334"
       d="m 12.853167,10.661 c -0.102084,-0.63875 -0.518,-1.1754167 -1.75175,-1.6759167 -0.429334,-0.20125 -0.9065,-0.34125 -1.04825,-0.665 -0.05308,-0.1925 -0.06125,-0.2975 -0.02683,-0.41125 0.0875,-0.3768333 0.53375,-0.49 0.88375,-0.385 0.2275,0.07 0.4375,0.245 0.569334,0.525 0.603166,-0.3943333 0.603166,-0.3943333 1.02375,-0.65625 -0.1575,-0.245 -0.235667,-0.3505833 -0.341834,-0.455 -0.3675,-0.41125 -0.856916,-0.62125 -1.653166,-0.6031666 l -0.41125,0.051917 c -0.3943337,0.09625 -0.7700003,0.30625 -0.9975003,0.58625 -0.665,0.7530834 -0.4730834,2.0655834 0.3319166,2.6080834 0.7962497,0.5949999 1.9605837,0.7256659 2.1093337,1.2862499 0.14,0.6825 -0.5075,0.90125 -1.146834,0.8225 -0.473087,-0.105 -0.7350037,-0.341834 -1.0237537,-0.779334 l -1.0675,0.613084 c 0.1225,0.28 0.2625,0.401916 0.4725,0.646916 1.015,1.024334 3.5524997,0.971834 4.0080837,-0.585666 0.01692,-0.0525 0.14,-0.41125 0.04317,-0.9625 z"
       id="path853" />
  </g>
</svg>
