<?xml version="1.0" encoding="UTF-8" standalone="no"?>
<svg
   xmlns:dc="http://purl.org/dc/elements/1.1/"
   xmlns:cc="http://creativecommons.org/ns#"
   xmlns:rdf="http://www.w3.org/1999/02/22-rdf-syntax-ns#"
   xmlns:svg="http://www.w3.org/2000/svg"
   xmlns="http://www.w3.org/2000/svg"
   xmlns:sodipodi="http://sodipodi.sourceforge.net/DTD/sodipodi-0.dtd"
   xmlns:inkscape="http://www.inkscape.org/namespaces/inkscape"
   viewBox="0 0 20 20"
   width="20"
   height="20"
   version="1.1"
   id="svg32"
   sodipodi:docname="kotlin.svg"
   inkscape:version="1.0.2 (e86c870879, 2021-01-15)">
  <metadata
     id="metadata38">
    <rdf:RDF>
      <cc:Work
         rdf:about="">
        <dc:format>image/svg+xml</dc:format>
        <dc:type
           rdf:resource="http://purl.org/dc/dcmitype/StillImage" />
        <dc:title></dc:title>
      </cc:Work>
    </rdf:RDF>
  </metadata>
  <defs
     id="defs36" />
  <sodipodi:namedview
     pagecolor="#ffffff"
     bordercolor="#666666"
     borderopacity="1"
     objecttolerance="10"
     gridtolerance="10"
     guidetolerance="10"
     inkscape:pageopacity="0"
     inkscape:pageshadow="2"
     inkscape:window-width="1366"
     inkscape:window-height="715"
     id="namedview34"
     showgrid="false"
     inkscape:zoom="19.333333"
     inkscape:cx="6.599067"
     inkscape:cy="13.06679"
     inkscape:window-x="-8"
     inkscape:window-y="-8"
     inkscape:window-maximized="1"
     inkscape:current-layer="svg32" />
  <g
     id="g878"
     transform="matrix(0.55555556,0,0,0.55555556,-3.3333334,-3.3333334)">
    <polygon
       fill="#0d91d6"
       points="17.99,12.35 11.97,18.69 6,25 6,6 24,6 "
       id="polygon2" />
    <polygon
       fill="#f88909"
       points="6,25.09 6,42 14.69,33.31 20.87,27.13 27.06,20.94 33.25,14.75 42,6 24,6 23.96,6 17.97,12.33 11.96,18.68 6,24.97 6,25 "
       id="polygon4" />
    <polygon
       fill="#c757bc"
       points="14.69,33.31 6,42 6,25.09 "
       id="polygon6" />
    <polygon
       fill="#d3638f"
       points="14.69,33.31 6,25.09 6,25 11.97,18.69 20.87,27.13 "
       id="polygon8" />
    <polygon
       fill="#e07063"
       points="11.97,18.69 17.99,12.35 27.06,20.94 20.87,27.13 "
       id="polygon10" />
    <polygon
       fill="#ec7d36"
       points="17.99,12.35 24,6 33.25,14.75 27.06,20.94 "
       id="polygon12" />
    <polygon
       fill="#f88909"
       points="42,6 33.25,14.75 24,6 "
       id="polygon14" />
    <polygon
       fill="#0095d5"
       points="6,21 6,13.94 11.51,19.15 7.99,22.88 "
       id="polygon16" />
    <polygon
       fill="#2b88da"
       points="6,13.94 6,6.87 15.03,15.42 11.51,19.15 "
       id="polygon18" />
    <polygon
       fill="#557bde"
       points="15.03,15.42 6,6.87 6,6 12.53,6 18.56,11.7 "
       id="polygon20" />
    <polygon
       fill="#806ee3"
       points="12.53,6 24,6 22.08,7.97 18.56,11.7 "
       id="polygon22" />
    <polygon
       fill="#0095d5"
       points="6,42 9.35,42 17.52,42 40,42 23,25 "
       id="polygon24" />
    <polygon
       fill="#2b88da"
       points="11.76,36.25 15.84,32.17 25.68,42 17.52,42 "
       id="polygon26" />
    <polygon
       fill="#557bde"
       points="15.84,32.17 19.92,28.09 33.86,42 25.68,42 "
       id="polygon28" />
    <polygon
       fill="#806ee3"
       points="19.92,28.09 24,24 42,42 33.86,42 "
       id="polygon30" />
  </g>
</svg>
