<?xml version="1.0" encoding="UTF-8" standalone="no"?>
<svg
   xmlns:dc="http://purl.org/dc/elements/1.1/"
   xmlns:cc="http://creativecommons.org/ns#"
   xmlns:rdf="http://www.w3.org/1999/02/22-rdf-syntax-ns#"
   xmlns:svg="http://www.w3.org/2000/svg"
   xmlns="http://www.w3.org/2000/svg"
   xmlns:sodipodi="http://sodipodi.sourceforge.net/DTD/sodipodi-0.dtd"
   xmlns:inkscape="http://www.inkscape.org/namespaces/inkscape"
   role="img"
   viewBox="0 0 20 20"
   version="1.1"
   id="svg6"
   sodipodi:docname="mysql.svg"
   inkscape:version="1.0.2 (e86c870879, 2021-01-15)"
   width="20"
   height="20">
  <metadata
     id="metadata12">
    <rdf:RDF>
      <cc:Work
         rdf:about="">
        <dc:format>image/svg+xml</dc:format>
        <dc:type
           rdf:resource="http://purl.org/dc/dcmitype/StillImage" />
        <dc:title>MySQL icon</dc:title>
      </cc:Work>
    </rdf:RDF>
  </metadata>
  <defs
     id="defs10" />
  <sodipodi:namedview
     pagecolor="#ffffff"
     bordercolor="#666666"
     borderopacity="1"
     objecttolerance="10"
     gridtolerance="10"
     guidetolerance="10"
     inkscape:pageopacity="0"
     inkscape:pageshadow="2"
     inkscape:window-width="1366"
     inkscape:window-height="715"
     id="namedview8"
     showgrid="false"
     inkscape:zoom="19.279855"
     inkscape:cx="6.4735503"
     inkscape:cy="6.4953723"
     inkscape:window-x="-8"
     inkscape:window-y="-8"
     inkscape:window-maximized="1"
     inkscape:current-layer="svg6"
     fit-margin-top="0"
     fit-margin-left="0"
     fit-margin-right="0"
     fit-margin-bottom="0"
     inkscape:document-rotation="0" />
  <title
     id="title2">MySQL icon</title>
  <g
     id="g838"
     transform="matrix(1.4285714,0,0,1.4285714,-3.4741578,0.82344462)">
    <circle
       style="fill:#00618a;fill-opacity:1;stroke:none;stroke-width:0.092;stroke-linecap:round;stroke-opacity:1"
       id="path833"
       cx="9.4319105"
       cy="6.4235888"
       r="7" />
    <g
       id="g869"
       transform="matrix(0.97590863,0,0,0.99422833,-9.19427,-2.2008789)"
       style="fill:#ffffff;fill-opacity:1;stroke:none">
      <path
         d="m 23.224,11.311 c -0.535,-0.014 -0.95,0.04 -1.297,0.188 -0.1,0.04 -0.26,0.04 -0.274,0.167 0.055,0.053 0.063,0.14 0.11,0.214 0.08,0.134 0.218,0.313 0.346,0.407 0.14,0.11 0.28,0.216 0.427,0.31 0.26,0.16 0.555,0.255 0.81,0.416 0.145,0.094 0.293,0.213 0.44,0.313 0.073,0.05 0.12,0.14 0.214,0.172 v -0.02 c -0.046,-0.06 -0.06,-0.147 -0.105,-0.214 -0.067,-0.067 -0.134,-0.127 -0.2,-0.193 A 3.223,3.223 0 0 0 23,12.396 c -0.214,-0.146 -0.682,-0.35 -0.77,-0.595 l -0.013,-0.014 c 0.146,-0.013 0.32,-0.066 0.46,-0.106 0.227,-0.06 0.435,-0.047 0.67,-0.106 0.106,-0.027 0.213,-0.06 0.32,-0.094 v -0.06 c -0.12,-0.12 -0.21,-0.283 -0.334,-0.395 a 8.867,8.867 0 0 0 -1.104,-0.823 c -0.21,-0.134 -0.476,-0.22 -0.697,-0.334 -0.08,-0.04 -0.214,-0.06 -0.26,-0.127 -0.12,-0.146 -0.19,-0.34 -0.275,-0.514 A 17.69,17.69 0 0 1 20.45,8.065 C 20.33,7.803 20.257,7.542 20.11,7.302 19.42,6.165 18.673,5.476 17.524,4.802 17.277,4.662 16.981,4.602 16.668,4.528 16.501,4.52 16.334,4.508 16.168,4.501 16.058,4.454 15.952,4.327 15.858,4.266 c -0.38,-0.24 -1.364,-0.76 -1.644,-0.072 -0.18,0.434 0.267,0.862 0.422,1.082 0.115,0.153 0.26,0.328 0.34,0.5 0.047,0.116 0.06,0.235 0.107,0.356 0.106,0.294 0.207,0.622 0.347,0.897 0.073,0.14 0.153,0.287 0.247,0.413 0.054,0.073 0.146,0.107 0.167,0.227 -0.094,0.136 -0.1,0.334 -0.154,0.5 -0.24,0.757 -0.146,1.693 0.194,2.25 0.107,0.166 0.362,0.534 0.703,0.393 0.3,-0.12 0.234,-0.5 0.32,-0.835 0.02,-0.08 0.007,-0.133 0.048,-0.187 v 0.015 c 0.094,0.188 0.188,0.367 0.274,0.555 0.206,0.328 0.566,0.668 0.867,0.895 0.16,0.12 0.287,0.328 0.487,0.402 v -0.02 h -0.015 c -0.043,-0.058 -0.1,-0.086 -0.154,-0.133 a 3.445,3.445 0 0 1 -0.35,-0.4 8.76,8.76 0 0 1 -0.747,-1.218 c -0.11,-0.21 -0.202,-0.436 -0.29,-0.643 -0.04,-0.08 -0.04,-0.2 -0.107,-0.24 -0.1,0.146 -0.247,0.273 -0.32,0.453 -0.127,0.288 -0.14,0.642 -0.188,1.01 -0.027,0.007 -0.014,0 -0.027,0.014 -0.214,-0.052 -0.287,-0.274 -0.367,-0.46 -0.2,-0.475 -0.233,-1.238 -0.06,-1.785 0.047,-0.14 0.247,-0.582 0.167,-0.716 -0.042,-0.127 -0.174,-0.2 -0.247,-0.303 A 2.478,2.478 0 0 1 15.638,6.789 C 15.478,6.415 15.398,6.001 15.224,5.627 15.144,5.454 15.004,5.273 14.89,5.114 14.763,4.934 14.623,4.807 14.522,4.594 14.489,4.521 14.442,4.4 14.495,4.32 c 0.014,-0.054 0.042,-0.075 0.094,-0.09 0.088,-0.072 0.335,0.022 0.422,0.062 0.247,0.1 0.455,0.194 0.662,0.334 0.094,0.066 0.195,0.193 0.315,0.226 h 0.14 c 0.214,0.047 0.455,0.014 0.655,0.073 0.355,0.114 0.675,0.28 0.962,0.46 a 5.953,5.953 0 0 1 2.085,2.286 c 0.08,0.154 0.115,0.295 0.188,0.455 0.14,0.33 0.313,0.663 0.455,0.982 0.14,0.315 0.275,0.636 0.476,0.897 0.1,0.14 0.502,0.213 0.682,0.286 0.133,0.06 0.34,0.115 0.46,0.188 0.23,0.14 0.454,0.3 0.67,0.454 0.11,0.076 0.443,0.243 0.463,0.378 z"
         id="path865"
         style="fill:#ffffff;fill-opacity:1;stroke:none" />
      <path
         d="m 16.405,5.501 c -0.115,0 -0.193,0.014 -0.274,0.033 v 0.013 h 0.014 c 0.054,0.104 0.146,0.18 0.214,0.273 0.054,0.107 0.1,0.214 0.154,0.32 l 0.014,-0.015 c 0.094,-0.066 0.14,-0.172 0.14,-0.333 -0.04,-0.047 -0.046,-0.094 -0.08,-0.14 -0.04,-0.067 -0.126,-0.1 -0.18,-0.153 z"
         id="path4"
         style="fill:#ffffff;fill-opacity:1;stroke:none" />
    </g>
  </g>
</svg>
